/* XPM */
static char * folderOpen_highlight_xpm[] = {
"20 20 44 1",
" 	s bg c None",
".	c #525252",
"+	c #D5D5D5",
"@	c #CEA222",
"#	c #FFFFFF",
"$	c #C69A19",
"%	c #FFFF9C",
"&	c #FFF39C",
"*	c #FFF38C",
"=	c #9D7B1A",
"-	c #FFEB84",
";	c #E2C150",
">	c #B18919",
",	c #FFD784",
"'	c #DABF6C",
")	c #FFFBF7",
"!	c #FFE784",
"~	c #A17E19",
"{	c #515151",
"]	c #FDD570",
"^	c #F7F089",
"/	c #FFC75B",
"(	c #FBF996",
"_	c #9B7B19",
":	c #434343",
"<	c #E2B343",
"[	c #C9A021",
"}	c #FFFFA5",
"|	c #FFF794",
"1	c #E7BE53",
"2	c #CEBC5C",
"3	c #A5730D",
"4	c #CFA226",
"5	c #D7B840",
"6	c #EFBA43",
"7	c #3C3C3C",
"8	c #C69A1A",
"9	c #F0E47A",
"0	c #FFE37C",
"a	c #FFDF7C",
"b	c #DEB243",
"c	c #C79C1C",
"d	c #FFD76C",
"e	c #BF9929",
"...................+",
".                  +",
"..               ..+",
".                  +",
".                  +",
".   @@@@           +",
".  @####$          +",
". $#%%%%#$$$$$$    +",
". $&*****#####$=   +",
". $-;$$$$$$$$$$$>  +",
". $,$'##)#####!#~{ +",
". $]$^%%%%%%%%/(_: +",
". $<[}||||||||123: +",
". $45%-------!6$7{ +",
". $89%0000000ab=7  +",
". $c%ddddddddde3:  +",
".  3333333333337{  +",
".   {::::::::::{   +",
".                  +",
".+++++++++++++++++++"};
