/* XPM */
static char * folderGoUp_highlight_xpm[] = {
"20 20 110 2",
"  	s bg c None",
". 	c #525252",
"+ 	c #D5D5D5",
"@ 	c #296229",
"# 	c #186418",
"$ 	c #466046",
"% 	c #087704",
"& 	c #19980D",
"* 	c #0E700A",
"= 	c #356235",
"- 	c #0F6A0E",
"; 	c #1CA00F",
"> 	c #34B31B",
", 	c #44B722",
"' 	c #278F14",
") 	c #126412",
"! 	c #148C0B",
"~ 	c #49BD25",
"{ 	c #57C42C",
"] 	c #67CC34",
"^ 	c #3CA11F",
"/ 	c #086E05",
"( 	c #2F622F",
"_ 	c #DDAF35",
": 	c #016701",
"< 	c #0C7907",
"[ 	c #117C09",
"} 	c #43AD22",
"| 	c #6CD139",
"1 	c #0D660D",
"2 	c #ECD999",
"3 	c #FCF9CF",
"4 	c #EFF5BC",
"5 	c #278C14",
"6 	c #75DA42",
"7 	c #FFFEC7",
"8 	c #FFFF99",
"9 	c #FFFFBE",
"0 	c #FFFFD1",
"a 	c #FFFFC6",
"b 	c #167C0C",
"c 	c #7FE34C",
"d 	c #1F6812",
"e 	c #FFF8A6",
"f 	c #FFF993",
"g 	c #377A0B",
"h 	c #74D847",
"i 	c #4E8F41",
"j 	c #FFEA95",
"k 	c #FCE47C",
"l 	c #F2D564",
"m 	c #E6C244",
"n 	c #DFBA3C",
"o 	c #ECD99F",
"p 	c #418C3E",
"q 	c #85EA53",
"r 	c #59BE39",
"s 	c #8FBC87",
"t 	c #FFFFF2",
"u 	c #BA9E46",
"v 	c #FFDB89",
"w 	c #E2B843",
"x 	c #EFDFAB",
"y 	c #FFFFE7",
"z 	c #FFFFD9",
"A 	c #228117",
"B 	c #8EF45C",
"C 	c #268B1A",
"D 	c #DFE6AF",
"E 	c #F2E6A4",
"F 	c #807040",
"G 	c #FCD483",
"H 	c #E2C671",
"I 	c #FFFFAC",
"J 	c #DFEC86",
"K 	c #2F941F",
"L 	c #60C540",
"M 	c #61932E",
"N 	c #FFF2A9",
"O 	c #CCAC3F",
"P 	c #EAC057",
"Q 	c #F5EAC1",
"R 	c #FFF28C",
"S 	c #81AC47",
"T 	c #278C1B",
"U 	c #31811B",
"V 	c #EFE07B",
"W 	c #F5DF79",
"X 	c #87733A",
"Y 	c #E6BC51",
"Z 	c #FFF4C8",
"` 	c #FFE883",
" .	c #11700A",
"..	c #518E29",
"+.	c #E6D163",
"@.	c #ECC64E",
"#.	c #D5AC2D",
"$.	c #E6C979",
"%.	c #FFE6A0",
"&.	c #FFDC77",
"*.	c #F2CC5B",
"=.	c #E6BC3E",
"-.	c #B99C11",
";.	c #CC9901",
">.	c #BF920D",
",.	c #A38324",
"'.	c #D6A517",
").	c #B78E12",
"!.	c #9B7E29",
"~.	c #796C46",
". . . . . . . . . . . . . . . . . . . + ",
".                                     + ",
".                   @ #               + ",
".                 $ % & * =           + ",
".                 - ; > , ' )         + ",
".               @ ! > ~ { ] ^ / (     + ",
".         _ _ _ : < [ } ] | 1 [ [     + ",
".       _ 2 3 4 _ _ _ 5 | 6 #         + ",
".       _ 7 8 8 9 0 a b 6 c d         + ",
".       _ e f f f f _ g c h i _ _     + ",
".       _ j k l m n o p q r s t u     + ",
".       _ v w x y z a A B C D E F     + ",
".       _ G H I 8 8 J K L M N O       + ",
".       _ P Q R R R S T U V W X       + ",
".       _ Y Z ` ` `  ...+.@.#.        + ",
".       _ $.%.&.*.=.-.;.>.,.F         + ",
".       _ o '.;.).!.F                 + ",
".       _ _ ~.                        + ",
".                                     + ",
". + + + + + + + + + + + + + + + + + + + "};
