/* XPM */
static char * folderOpen_xpm[] = {
"20 20 42 1",
" 	s bg c None",
".	c #CEA222",
"+	c #FFFFFF",
"@	c #C69A19",
"#	c #FFFF9C",
"$	c #FFF39C",
"%	c #FFF38C",
"&	c #9D7B1A",
"*	c #FFEB84",
"=	c #E2C150",
"-	c #B18919",
";	c #FFD784",
">	c #DABF6C",
",	c #FFFBF7",
"'	c #FFE784",
")	c #A17E19",
"!	c #515151",
"~	c #FDD570",
"{	c #F7F089",
"]	c #FFC75B",
"^	c #FBF996",
"/	c #9B7B19",
"(	c #434343",
"_	c #E2B343",
":	c #C9A021",
"<	c #FFFFA5",
"[	c #FFF794",
"}	c #E7BE53",
"|	c #CEBC5C",
"1	c #A5730D",
"2	c #CFA226",
"3	c #D7B840",
"4	c #EFBA43",
"5	c #3C3C3C",
"6	c #C69A1A",
"7	c #F0E47A",
"8	c #FFE37C",
"9	c #FFDF7C",
"0	c #DEB243",
"a	c #C79C1C",
"b	c #FFD76C",
"c	c #BF9929",
"                    ",
"                    ",
"                    ",
"                    ",
"                    ",
"    ....            ",
"   .++++@           ",
"  @+####+@@@@@@     ",
"  @$%%%%%+++++@&    ",
"  @*=@@@@@@@@@@@-   ",
"  @;@>++,+++++'+)!  ",
"  @~@{########]^/(  ",
"  @_:<[[[[[[[[}|1(  ",
"  @23#*******'4@5!  ",
"  @67#888888890&5   ",
"  @a#bbbbbbbbbc1(   ",
"   1111111111115!   ",
"    !((((((((((!    ",
"                    ",
"                    "};
