/* XPM */
static char * folerGoUp_xpm[] = {
"20 20 108 2",
"  	s bg c None",
". 	c #296229",
"+ 	c #186418",
"@ 	c #466046",
"# 	c #087704",
"$ 	c #19980D",
"% 	c #0E700A",
"& 	c #356235",
"* 	c #0F6A0E",
"= 	c #1CA00F",
"- 	c #34B31B",
"; 	c #44B722",
"> 	c #278F14",
", 	c #126412",
"' 	c #148C0B",
") 	c #49BD25",
"! 	c #57C42C",
"~ 	c #67CC34",
"{ 	c #3CA11F",
"] 	c #086E05",
"^ 	c #2F622F",
"/ 	c #DDAF35",
"( 	c #016701",
"_ 	c #0C7907",
": 	c #117C09",
"< 	c #43AD22",
"[ 	c #6CD139",
"} 	c #0D660D",
"| 	c #ECD999",
"1 	c #FCF9CF",
"2 	c #EFF5BC",
"3 	c #278C14",
"4 	c #75DA42",
"5 	c #FFFEC7",
"6 	c #FFFF99",
"7 	c #FFFFBE",
"8 	c #FFFFD1",
"9 	c #FFFFC6",
"0 	c #167C0C",
"a 	c #7FE34C",
"b 	c #1F6812",
"c 	c #FFF8A6",
"d 	c #FFF993",
"e 	c #377A0B",
"f 	c #74D847",
"g 	c #4E8F41",
"h 	c #FFEA95",
"i 	c #FCE47C",
"j 	c #F2D564",
"k 	c #E6C244",
"l 	c #DFBA3C",
"m 	c #ECD99F",
"n 	c #418C3E",
"o 	c #85EA53",
"p 	c #59BE39",
"q 	c #8FBC87",
"r 	c #FFFFF2",
"s 	c #BA9E46",
"t 	c #FFDB89",
"u 	c #E2B843",
"v 	c #EFDFAB",
"w 	c #FFFFE7",
"x 	c #FFFFD9",
"y 	c #228117",
"z 	c #8EF45C",
"A 	c #268B1A",
"B 	c #DFE6AF",
"C 	c #F2E6A4",
"D 	c #807040",
"E 	c #FCD483",
"F 	c #E2C671",
"G 	c #FFFFAC",
"H 	c #DFEC86",
"I 	c #2F941F",
"J 	c #60C540",
"K 	c #61932E",
"L 	c #FFF2A9",
"M 	c #CCAC3F",
"N 	c #EAC057",
"O 	c #F5EAC1",
"P 	c #FFF28C",
"Q 	c #81AC47",
"R 	c #278C1B",
"S 	c #31811B",
"T 	c #EFE07B",
"U 	c #F5DF79",
"V 	c #87733A",
"W 	c #E6BC51",
"X 	c #FFF4C8",
"Y 	c #FFE883",
"Z 	c #11700A",
"` 	c #518E29",
" .	c #E6D163",
"..	c #ECC64E",
"+.	c #D5AC2D",
"@.	c #E6C979",
"#.	c #FFE6A0",
"$.	c #FFDC77",
"%.	c #F2CC5B",
"&.	c #E6BC3E",
"*.	c #B99C11",
"=.	c #CC9901",
"-.	c #BF920D",
";.	c #A38324",
">.	c #D6A517",
",.	c #B78E12",
"'.	c #9B7E29",
").	c #796C46",
"                                        ",
"                                        ",
"                    . +                 ",
"                  @ # $ % &             ",
"                  * = - ; > ,           ",
"                . ' - ) ! ~ { ] ^       ",
"          / / / ( _ : < ~ [ } : :       ",
"        / | 1 2 / / / 3 [ 4 +           ",
"        / 5 6 6 7 8 9 0 4 a b           ",
"        / c d d d d / e a f g / /       ",
"        / h i j k l m n o p q r s       ",
"        / t u v w x 9 y z A B C D       ",
"        / E F G 6 6 H I J K L M         ",
"        / N O P P P Q R S T U V         ",
"        / W X Y Y Y Z `  ...+.          ",
"        / @.#.$.%.&.*.=.-.;.D           ",
"        / m >.=.,.'.D                   ",
"        / / ).                          ",
"                                        ",
"                                        "};
