/* XPM */
static char * out_vstInfo_xpm[] = {
"20 20 182 2",
"  	s bg c None",
". 	c #444444",
"+ 	c #494743",
"@ 	c #504C3F",
"# 	c #665F35",
"$ 	c #56523B",
"% 	c #4A4843",
"& 	c #454544",
"* 	c #454543",
"= 	c #C57F15",
"- 	c #BA7B19",
"; 	c #55523C",
"> 	c #1F1F1F",
", 	c #685A40",
"' 	c #BC861E",
") 	c #E59907",
"! 	c #FF9900",
"~ 	c #EC9900",
"{ 	c #CB8E1E",
"] 	c #816937",
"^ 	c #484848",
"/ 	c #50503E",
"( 	c #8F6A28",
"_ 	c #D5890F",
": 	c #A26E22",
"< 	c #1A1A1A",
"[ 	c #454545",
"} 	c #726238",
"| 	c #DC920D",
"1 	c #EE9702",
"2 	c #C78E24",
"3 	c #C68E2A",
"4 	c #D79409",
"5 	c #F3970A",
"6 	c #A57722",
"7 	c #4C4B40",
"8 	c #89642B",
"9 	c #D98B0D",
"0 	c #645937",
"a 	c #695D44",
"b 	c #E09509",
"c 	c #D98613",
"d 	c #54474B",
"e 	c #78642E",
"f 	c #F69900",
"g 	c #8F7321",
"h 	c #4E4E3F",
"i 	c #C28315",
"j 	c #79612F",
"k 	c #42423F",
"l 	c #131313",
"m 	c #4E4941",
"n 	c #C6821A",
"o 	c #FE9901",
"p 	c #EC9603",
"q 	c #BF890E",
"r 	c #73593A",
"s 	c #584E40",
"t 	c #D78813",
"u 	c #E28D0B",
"v 	c #6C583B",
"w 	c #625239",
"x 	c #564E3D",
"y 	c #313133",
"z 	c #020206",
"A 	c #645A36",
"B 	c #F39900",
"C 	c #FC9903",
"D 	c #977234",
"E 	c #474747",
"F 	c #AA7C2E",
"G 	c #AC7429",
"H 	c #181818",
"I 	c #000000",
"J 	c #966C31",
"K 	c #E4920F",
"L 	c #56533E",
"M 	c #745C39",
"N 	c #DC9618",
"O 	c #383838",
"P 	c #070707",
"Q 	c #B08431",
"R 	c #9A7435",
"S 	c #4B4B4B",
"T 	c #4C4C40",
"U 	c #EB9914",
"V 	c #DF9900",
"W 	c #252525",
"X 	c #010101",
"Y 	c #C58215",
"Z 	c #544B41",
"` 	c #5F5747",
" .	c #AA7F2F",
"..	c #484842",
"+.	c #B37727",
"@.	c #DF990A",
"#.	c #3F3F3F",
"$.	c #0F0F0F",
"%.	c #9A6E31",
"&.	c #82632F",
"*.	c #474742",
"=.	c #A67B24",
"-.	c #E08D0E",
";.	c #5E513D",
">.	c #7F673B",
",.	c #F3980A",
"'.	c #FC9801",
").	c #DE9820",
"!.	c #343434",
"~.	c #030303",
"{.	c #404040",
"].	c #665C37",
"^.	c #F5990A",
"/.	c #C68D20",
"(.	c #6C5737",
"_.	c #EF9900",
":.	c #F79900",
"<.	c #876C26",
"[.	c #6C6C3B",
"}.	c #8F762D",
"|.	c #F49902",
"1.	c #A37124",
"2.	c #2F2F2F",
"3.	c #4B4942",
"4.	c #BC841D",
"5.	c #ED910A",
"6.	c #765B43",
"7.	c #59543C",
"8.	c #C98315",
"9.	c #BA7C1D",
"0.	c #424050",
"a.	c #514C44",
"b.	c #977640",
"c.	c #DEA313",
"d.	c #665439",
"e.	c #3A3A3A",
"f.	c #0A0A0A",
"g.	c #141414",
"h.	c #695B3F",
"i.	c #DC941D",
"j.	c #E3991C",
"k.	c #E39911",
"l.	c #F89900",
"m.	c #EE9900",
"n.	c #B67D1C",
"o.	c #E09218",
"p.	c #8C713A",
"q.	c #242424",
"r.	c #020202",
"s.	c #272727",
"t.	c #434343",
"u.	c #73603C",
"v.	c #DD8F16",
"w.	c #FA9900",
"x.	c #ED9207",
"y.	c #957526",
"z.	c #4A4945",
"A.	c #353535",
"B.	c #040404",
"C.	c #2A2A2A",
"D.	c #5E4E3F",
"E.	c #A57925",
"F.	c #DE9217",
"G.	c #F29900",
"H.	c #E59910",
"I.	c #BD7B21",
"J.	c #775B39",
"K.	c #090909",
"L.	c #222222",
"M.	c #3D3D3D",
"N.	c #494745",
"O.	c #544D41",
"P.	c #5E5441",
"Q.	c #635743",
"R.	c #564F3F",
"S.	c #4C4843",
"T.	c #414141",
"U.	c #2C2C2C",
"V.	c #080808",
"W.	c #101010",
"X.	c #303030",
"Y.	c #2D2D2D",
"          . . . . . . . . . . . . . .   ",
"      . . + @ # # $ % & . . * = - ; . > ",
"    . . , ' ) ! ! ~ { ] ^ . / ( _ : . < ",
"  . [ } | 1 2 3 4 ! ! 5 6 7 . 8 9 0 . < ",
". . a b ! c d . e f ! ! ! g h ! i j k l ",
". m n o ! p q r s t ! ! ! u v w w x y z ",
". A B ! ! ! C D E F ! ! ! ! G . . . H I ",
". J ! ! ! ! K L . M ! ! ! ! N . . O P I ",
". Q ! ! ! ! R . S T U ! ! ! V . . W X I ",
". Q ! ! ! Y Z `  ...+.! ! ! @.. #.$.I   ",
". %.! ! o &.*.=.-.;.>.,.'.! ).. !.~.I   ",
"{.].^.! /.. (._.:.<.T [.}.|.1.. H I I   ",
"2.3.4.5.6.7.8.! ! 9.0.a.b.c.d.e.f.I     ",
"g.{.h.i.j.k.l.! ! m.n.o.B p.. q.r.I     ",
"r.s.t.u.v.w.! ! ! ! ! x.y.z.A.B.I       ",
"I ~.C.t.D.E.F.G.l.H.I.J.. !.K.I I       ",
"  I ~.L.M.N.O.P.Q.R.S.T.U.V.I I         ",
"    I r.W.q.X.X.X.X.Y.H B.I I           ",
"      I I X r.r.r.r.r.I I I             ",
"          I I I I I I I                 "};
