/* XPM */
static char * out_vstHelperBone_xpm[] = {
"20 20 7 1",
" 	s bg c None",
".	c #32560A",
"+	c #34590A",
"@	c #355A0B",
"#	c #43720E",
"$	c #568422",
"%	c #759E46",
"        +@@+        ",
"       @..+++       ",
"       +.  ++       ",
"       ++  ++       ",
"     .#.++++#       ",
"     ##.+###        ",
"     #$$$##         ",
"     #$$##          ",
"    #@$@#           ",
"    ##@.            ",
"  #@@@#             ",
" #@@@@@             ",
" +@  %@#.           ",
" #+  %..##          ",
" #+++##$$$## #.@+   ",
"  #+++#$$$$#..+@++  ",
"      ######@@  ..  ",
"            @@  .+  ",
"            #.++++  ",
"             #+++   "};
