/* XPM */
static char * breakdownNext_xpm[] = {
"32 32 761 2",
"  	c #292929",
". 	c #1C1C1C",
"+ 	c #1D1D1C",
"@ 	c #1E1E1E",
"# 	c #1F1E1E",
"$ 	c #201F1F",
"% 	c #202020",
"& 	c #212121",
"* 	c #222322",
"= 	c #232323",
"- 	c #242424",
"; 	c #252525",
"> 	c #262626",
", 	c #272727",
"' 	c #282828",
") 	c #2A2A2A",
"! 	c #2C2C2B",
"~ 	c #2C2D2C",
"{ 	c #2E2E2E",
"] 	c #2E2F2E",
"^ 	c #303030",
"/ 	c #303131",
"( 	c #323132",
"_ 	c #333333",
": 	c #343434",
"< 	c #353435",
"[ 	c #363736",
"} 	c #373737",
"| 	c #383838",
"1 	c #454645",
"2 	c #191A1A",
"3 	c #101010",
"4 	c #111211",
"5 	c #121212",
"6 	c #141313",
"7 	c #141414",
"8 	c #141515",
"9 	c #161615",
"0 	c #171717",
"a 	c #181818",
"b 	c #181918",
"c 	c #1A1A1A",
"d 	c #1B1B1B",
"e 	c #1D1D1D",
"f 	c #1F1F1F",
"g 	c #20201F",
"h 	c #222122",
"i 	c #232424",
"j 	c #232525",
"k 	c #262726",
"l 	c #272626",
"m 	c #272627",
"n 	c #292829",
"o 	c #292A2A",
"p 	c #2A2B2B",
"q 	c #2C2C2C",
"r 	c #2E2D2D",
"s 	c #393939",
"t 	c #1F201F",
"u 	c #121213",
"v 	c #131314",
"w 	c #161617",
"x 	c #171817",
"y 	c #191919",
"z 	c #1B1C1B",
"A 	c #1C1C1D",
"B 	c #1E1D1D",
"C 	c #212021",
"D 	c #222121",
"E 	c #1E2122",
"F 	c #101514",
"G 	c #111010",
"H 	c #0E1514",
"I 	c #212424",
"J 	c #2B2B2B",
"K 	c #2F3030",
"L 	c #313131",
"M 	c #3F3F3F",
"N 	c #222222",
"O 	c #151516",
"P 	c #1C1B1B",
"Q 	c #212020",
"R 	c #232324",
"S 	c #242425",
"T 	c #1D2121",
"U 	c #170507",
"V 	c #730009",
"W 	c #A2000F",
"X 	c #5C0008",
"Y 	c #0A0606",
"Z 	c #2D2E2F",
"` 	c #2A2B2D",
" .	c #202225",
"..	c #202325",
"+.	c #2F2F30",
"@.	c #363636",
"#.	c #424242",
"$.	c #191918",
"%.	c #32332F",
"&.	c #161713",
"*.	c #9A4C3B",
"=.	c #FF857A",
"-.	c #FF1834",
";.	c #EC001A",
">.	c #6C0007",
",.	c #20221A",
"'.	c #545544",
").	c #211B16",
"!.	c #5B2B08",
"~.	c #823C09",
"{.	c #4D280C",
"].	c #131313",
"^.	c #303132",
"/.	c #474747",
"(.	c #1A1B1B",
"_.	c #1D1C1D",
":.	c #1E1F1F",
"<.	c #201F20",
"[.	c #2C2C2A",
"}.	c #3E3D34",
"|.	c #555340",
"1.	c #5F6147",
"2.	c #371C15",
"3.	c #EC7C6F",
"4.	c #FFA197",
"5.	c #FF2741",
"6.	c #FC001D",
"7.	c #CA0014",
"8.	c #541C19",
"9.	c #545B3D",
"0.	c #826B36",
"a.	c #DAA75D",
"b.	c #D56F22",
"c.	c #B8540C",
"d.	c #51290B",
"e.	c #1A1D1F",
"f.	c #484949",
"g.	c #282929",
"h.	c #1C1D1D",
"i.	c #252526",
"j.	c #2F2E2C",
"k.	c #414035",
"l.	c #545240",
"m.	c #636148",
"n.	c #6B694D",
"o.	c #676D4E",
"p.	c #461615",
"q.	c #E8162F",
"r.	c #FF2E47",
"s.	c #FF0626",
"t.	c #F1001D",
"u.	c #D60016",
"v.	c #6C0D13",
"w.	c #48482A",
"x.	c #D4B86E",
"y.	c #E5CF92",
"z.	c #D67F3B",
"A.	c #CD5B0D",
"B.	c #A24D0E",
"C.	c #342112",
"D.	c #434647",
"E.	c #222223",
"F.	c #242323",
"G.	c #252424",
"H.	c #252625",
"I.	c #272728",
"J.	c #302F2C",
"K.	c #3F3F35",
"L.	c #514F3F",
"M.	c #5B5A44",
"N.	c #605F48",
"O.	c #66644B",
"P.	c #6C6A4F",
"Q.	c #717454",
"R.	c #442D23",
"S.	c #B6000F",
"T.	c #E90019",
"U.	c #E10019",
"V.	c #D60018",
"W.	c #B70010",
"X.	c #501A19",
"Y.	c #594B29",
"Z.	c #D47E34",
"`.	c #E08C44",
" +	c #D46B1E",
".+	c #C85B0F",
"++	c #B25410",
"@+	c #5A3112",
"#+	c #414447",
"$+	c #2F2F2F",
"%+	c #272828",
"&+	c #2D2C2B",
"*+	c #403F36",
"=+	c #51503F",
"-+	c #595743",
";+	c #5C5A45",
">+	c #5F5D48",
",+	c #616049",
"'+	c #64624B",
")+	c #61604A",
"!+	c #5B5A49",
"~+	c #353931",
"{+	c #450308",
"]+	c #A0000C",
"^+	c #AA000F",
"/+	c #85000B",
"(+	c #2F0001",
"_+	c #2A2E29",
":+	c #483D2D",
"<+	c #A54F0F",
"[+	c #C55C10",
"}+	c #BC5811",
"|+	c #B05411",
"1+	c #A24E10",
"2+	c #452A16",
"3+	c #494C4E",
"4+	c #323231",
"5+	c #232627",
"6+	c #1E2326",
"7+	c #242628",
"8+	c #323230",
"9+	c #48473B",
"0+	c #565442",
"a+	c #595844",
"b+	c #5B5A46",
"c+	c #5D5B47",
"d+	c #5B5947",
"e+	c #525143",
"f+	c #47463E",
"g+	c #3C3C39",
"h+	c #38393A",
"i+	c #282D2D",
"j+	c #251719",
"k+	c #1E0C0E",
"l+	c #0A0C0B",
"m+	c #1B2221",
"n+	c #404142",
"o+	c #2F3032",
"p+	c #522C0F",
"q+	c #96480E",
"r+	c #9D4D10",
"s+	c #894511",
"t+	c #46260E",
"u+	c #575757",
"v+	c #353535",
"w+	c #191A1C",
"x+	c #24150C",
"y+	c #3A1F0B",
"z+	c #1E150F",
"A+	c #282B26",
"B+	c #565543",
"C+	c #5C5A47",
"D+	c #504F42",
"E+	c #40403A",
"F+	c #363637",
"G+	c #393839",
"H+	c #3B3B3B",
"I+	c #3C3C3C",
"J+	c #3F403F",
"K+	c #3D4040",
"L+	c #3A3E3E",
"M+	c #3D3F3F",
"N+	c #444545",
"O+	c #454544",
"P+	c #454546",
"Q+	c #323433",
"R+	c #38291E",
"S+	c #372417",
"T+	c #1E1A16",
"U+	c #232729",
"V+	c #494A4A",
"W+	c #5A595A",
"X+	c #1D1F21",
"Y+	c #3C2B14",
"Z+	c #A46526",
"`+	c #BC5710",
" @	c #92460D",
".@	c #2F1E0E",
"+@	c #383A31",
"@@	c #5E5D4A",
"#@	c #545245",
"$@	c #44433D",
"%@	c #383938",
"&@	c #3A3A3A",
"*@	c #3D3D3D",
"=@	c #3E3E3F",
"-@	c #403F40",
";@	c #414041",
">@	c #444444",
",@	c #464646",
"'@	c #484747",
")@	c #494949",
"!@	c #4B4C4C",
"~@	c #46494B",
"{@	c #434648",
"]@	c #454748",
"^@	c #505050",
"/@	c #525152",
"(@	c #5C5C5C",
"_@	c #201C16",
":@	c #AB975A",
"<@	c #D7BD82",
"[@	c #D5732C",
"}@	c #D05E0E",
"|@	c #92480F",
"1@	c #342A1D",
"2@	c #4B4C43",
"3@	c #3D3D3B",
"4@	c #383939",
"5@	c #3E3F3E",
"6@	c #414141",
"7@	c #444343",
"8@	c #454646",
"9@	c #4A4A4A",
"0@	c #4C4B4B",
"a@	c #4C4D4D",
"b@	c #4E4E4E",
"c@	c #515252",
"d@	c #535353",
"e@	c #545453",
"f@	c #545455",
"g@	c #606060",
"h@	c #373A3C",
"i@	c #322013",
"j@	c #C18041",
"k@	c #D29459",
"l@	c #D26A20",
"m@	c #CE5E0F",
"n@	c #B65710",
"o@	c #583416",
"p@	c #343739",
"q@	c #3C3C3D",
"r@	c #3E3E3D",
"s@	c #404041",
"t@	c #424142",
"u@	c #434243",
"v@	c #474746",
"w@	c #484848",
"x@	c #49494A",
"y@	c #4B4B4B",
"z@	c #4C4C4C",
"A@	c #4D4D4D",
"B@	c #4E4F4F",
"C@	c #515251",
"D@	c #545454",
"E@	c #565656",
"F@	c #585858",
"G@	c #646364",
"H@	c #3B3E41",
"I@	c #352418",
"J@	c #B1500D",
"K@	c #CB5F16",
"L@	c #C85C0F",
"M@	c #BC5810",
"N@	c #AF5510",
"O@	c #573215",
"P@	c #35383C",
"Q@	c #404040",
"R@	c #434343",
"S@	c #474748",
"T@	c #4F4F4F",
"U@	c #515151",
"V@	c #525252",
"W@	c #555455",
"X@	c #575857",
"Y@	c #595959",
"Z@	c #5A5A5B",
"`@	c #676767",
" #	c #444546",
".#	c #292724",
"+#	c #76380B",
"@#	c #AF520D",
"##	c #AE5310",
"$#	c #A24F10",
"%#	c #753A0C",
"&#	c #31261F",
"*#	c #3F4143",
"=#	c #444344",
"-#	c #454444",
";#	c #484948",
">#	c #505151",
",#	c #5A5A5A",
"'#	c #5B5C5B",
")#	c #5D5D5D",
"!#	c #5E5E5E",
"~#	c #6A6A6A",
"{#	c #37393A",
"]#	c #2D2620",
"^#	c #4F2C11",
"/#	c #562D0F",
"(#	c #351F0E",
"_#	c #191817",
":#	c #38393B",
"<#	c #4E4D4E",
"[#	c #505150",
"}#	c #555454",
"|#	c #5B5B5B",
"1#	c #5D5D5C",
"2#	c #605F5F",
"3#	c #616161",
"4#	c #626262",
"5#	c #6E6F6E",
"6#	c #414140",
"7#	c #3F4041",
"8#	c #333639",
"9#	c #2A2E31",
"0#	c #2B2E31",
"a#	c #4B4A4A",
"b#	c #4E4E4F",
"c#	c #504F50",
"d#	c #525353",
"e#	c #555555",
"f#	c #575756",
"g#	c #5A5959",
"h#	c #5B5B5A",
"i#	c #646464",
"j#	c #666666",
"k#	c #727272",
"l#	c #454545",
"m#	c #4C4D4C",
"n#	c #555554",
"o#	c #565655",
"p#	c #5A5A59",
"q#	c #615F61",
"r#	c #5F575C",
"s#	c #635E61",
"t#	c #686969",
"u#	c #676465",
"v#	c #655D61",
"w#	c #696769",
"x#	c #6C6C6C",
"y#	c #767575",
"z#	c #464747",
"A#	c #4A494A",
"B#	c #5C5D5D",
"C#	c #5E5E5D",
"D#	c #5F5F5F",
"E#	c #636363",
"F#	c #656364",
"G#	c #2F3C36",
"H#	c #114529",
"I#	c #1A3727",
"J#	c #524A4E",
"K#	c #25392F",
"L#	c #12462A",
"M#	c #26362E",
"N#	c #6A6769",
"O#	c #787878",
"P#	c #4A4B4B",
"Q#	c #4D4E4E",
"R#	c #555655",
"S#	c #565756",
"T#	c #5D5E5E",
"U#	c #606161",
"V#	c #656565",
"W#	c #666063",
"X#	c #16412B",
"Y#	c #00A44D",
"Z#	c #009445",
"`#	c #0D1A13",
" $	c #013D1F",
".$	c #00AC50",
"+$	c #053B1F",
"@$	c #5E565A",
"#$	c #797878",
"$$	c #4F5050",
"%$	c #515152",
"&$	c #575656",
"*$	c #585758",
"=$	c #5C5C5D",
"-$	c #5F5F5E",
";$	c #626261",
">$	c #686868",
",$	c #696969",
"'$	c #6B6B6B",
")$	c #696266",
"!$	c #19432E",
"~$	c #00A24E",
"{$	c #00B458",
"]$	c #006B33",
"^$	c #00401F",
"/$	c #00AD53",
"($	c #063C21",
"_$	c #534B4F",
":$	c #767677",
"<$	c #505052",
"[$	c #4D4D50",
"}$	c #4F4F52",
"|$	c #505053",
"1$	c #565759",
"2$	c #56565A",
"3$	c #57575A",
"4$	c #58585C",
"5$	c #605F62",
"6$	c #656666",
"7$	c #656665",
"8$	c #646465",
"9$	c #69696A",
"0$	c #6D6D6C",
"a$	c #676769",
"b$	c #666769",
"c$	c #727171",
"d$	c #6D666A",
"e$	c #19442E",
"f$	c #00A24D",
"g$	c #009549",
"h$	c #00A451",
"i$	c #008641",
"j$	c #00A550",
"k$	c #053A1F",
"l$	c #4A4246",
"m$	c #757575",
"n$	c #3D3B31",
"o$	c #4E4D3B",
"p$	c #52503C",
"q$	c #51503D",
"r$	c #3F3E35",
"s$	c #454548",
"t$	c #41413E",
"u$	c #4E4C3B",
"v$	c #52513E",
"w$	c #53533F",
"x$	c #46443A",
"y$	c #454547",
"z$	c #5B5C5D",
"A$	c #434239",
"B$	c #535340",
"C$	c #434240",
"D$	c #525254",
"E$	c #48473A",
"F$	c #4F4E3D",
"G$	c #515150",
"H$	c #726C6F",
"I$	c #1B4530",
"J$	c #00AA50",
"K$	c #005027",
"L$	c #006D35",
"M$	c #00B357",
"N$	c #00A751",
"O$	c #04391E",
"P$	c #473F43",
"Q$	c #777777",
"R$	c #323336",
"S$	c #938E56",
"T$	c #F6F699",
"U$	c #E8E18A",
"V$	c #EEE98F",
"W$	c #E3E08A",
"X$	c #4B4933",
"Y$	c #302F23",
"Z$	c #ECE58B",
"`$	c #F5F093",
" %	c #F7F193",
".%	c #ECE98F",
"+%	c #736F45",
"@%	c #13131D",
"#%	c #7E7A4B",
"$%	c #F5F5A0",
"%%	c #8F8A56",
"&%	c #05050B",
"*%	c #ABA665",
"=%	c #D9D27D",
"-%	c #343330",
";%	c #6B656A",
">%	c #19462F",
",%	c #00B455",
"'%	c #004E26",
")%	c #030806",
"!%	c #009548",
"~%	c #00B557",
"{%	c #033B1E",
"]%	c #484044",
"^%	c #7A7A7A",
"/%	c #343538",
"(%	c #9F9A5F",
"_%	c #FFFF9F",
":%	c #3E3C26",
"<%	c #868251",
"[%	c #FFFFAA",
"}%	c #726F46",
"|%	c #28281D",
"1%	c #FFF99A",
"2%	c #CBC67B",
"3%	c #524F31",
"4%	c #E8E48D",
"5%	c #F6F094",
"6%	c #11100C",
"7%	c #7D7A4C",
"8%	c #FFFFA7",
"9%	c #FEFA9C",
"0%	c #444229",
"a%	c #AAA466",
"b%	c #E7E089",
"c%	c #2F2F2B",
"d%	c #646164",
"e%	c #25382E",
"f%	c #025127",
"g%	c #072C19",
"h%	c #2A1F25",
"i%	c #072F1B",
"j%	c #005228",
"k%	c #0B2417",
"l%	c #524F51",
"m%	c #7F7F7F",
"n%	c #6B6B6C",
"o%	c #36373B",
"p%	c #9B965C",
"q%	c #FFFFA0",
"r%	c #D9D282",
"s%	c #EDEA91",
"t%	c #E9E48E",
"u%	c #2D2C1F",
"v%	c #302E21",
"w%	c #FFFA9A",
"x%	c #B6B16D",
"y%	c #000000",
"z%	c #A6A064",
"A%	c #FFFFA3",
"B%	c #33321E",
"C%	c #747246",
"D%	c #FEFDA0",
"E%	c #F7F397",
"F%	c #DCD685",
"G%	c #CBC57A",
"H%	c #DFD884",
"I%	c #282824",
"J%	c #5D5D5E",
"K%	c #676466",
"L%	c #53474D",
"M%	c #4E494B",
"N%	c #514B4E",
"O%	c #44383E",
"P%	c #4B484A",
"Q%	c #878787",
"R%	c #6F7070",
"S%	c #39393C",
"T%	c #9C975C",
"U%	c #FFFE9F",
"V%	c #716D44",
"W%	c #83804F",
"X%	c #FBFA9E",
"Y%	c #8C8854",
"Z%	c #262518",
"`%	c #B8B36F",
" &	c #070708",
".&	c #BAB570",
"+&	c #FFFFA1",
"@&	c #282718",
"#&	c #797649",
"$&	c #FDF89A",
"%&	c #726E44",
"&&	c #F7F195",
"*&	c #D9D280",
"=&	c #252421",
"-&	c #59595B",
";&	c #7B7B7B",
">&	c #767676",
",&	c #7E7E7E",
"'&	c #919191",
")&	c #737474",
"!&	c #3A3A3D",
"~&	c #A39E60",
"{&	c #FFFFA8",
"]&	c #B3AE6B",
"^&	c #C8C278",
"/&	c #918B56",
"(&	c #262517",
"_&	c #FFFF9D",
":&	c #F8F296",
"<&	c #D3CD7F",
"[&	c #FFFFA4",
"}&	c #BDB771",
"|&	c #000002",
"1&	c #8A8553",
"2&	c #FFFFA6",
"3&	c #201F14",
"4&	c #6F6A42",
"5&	c #FFFFA9",
"6&	c #E6DE88",
"7&	c #252420",
"8&	c #5B5B5C",
"9&	c #7D7D7D",
"0&	c #878888",
"a&	c #888888",
"b&	c #898989",
"c&	c #8B8B8B",
"d&	c #8C8C8C",
"e&	c #8C8D8D",
"f&	c #8F8F8F",
"g&	c #989898",
"h&	c #474648",
"i&	c #5D5A37",
"j&	c #9B9A60",
"k&	c #A6A163",
"l&	c #A29E62",
"m&	c #7D794B",
"n&	c #25251E",
"o&	c #25241C",
"p&	c #948F57",
"q&	c #9E9A5F",
"r&	c #A3A062",
"s&	c #7B794B",
"t&	c #27261E",
"u&	c #1F2024",
"v&	c #525032",
"w&	c #9A995D",
"x&	c #27271E",
"y&	c #878350",
"z&	c #86814E",
"A&	c #262624",
"B&	c #828282",
"C&	c #8D8D8D",
"D&	c #8F8E8E",
"E&	c #8F908F",
"F&	c #939292",
"G&	c #949494",
"H&	c #959595",
"I&	c #9D9D9C",
"J&	c #414144",
"K&	c #2B2B2E",
"L&	c #202024",
"M&	c #1E1E21",
"N&	c #202026",
"O&	c #3E3E40",
"P&	c #313135",
"Q&	c #28282C",
"R&	c #222225",
"S&	c #242429",
"T&	c #414143",
"U&	c #434345",
"V&	c #343438",
"W&	c #535354",
"X&	c #2F3033",
"Y&	c #4F4E4F",
"Z&	c #909191",
"`&	c #929292",
" *	c #939393",
".*	c #969696",
"+*	c #979797",
"@*	c #989998",
"#*	c #9E9E9E",
"$*	c #838383",
"%*	c #6D6D6E",
"&*	c #626263",
"**	c #656566",
"=*	c #6F6F6F",
"-*	c #6A6A6B",
";*	c #7B7B7C",
">*	c #838282",
",*	c #7E7E7F",
"'*	c #7C7C7C",
")*	c #808080",
"!*	c #818181",
"~*	c #8A8A8A",
"{*	c #9A9B9B",
"]*	c #9C9C9C",
"^*	c #9D9D9D",
"/*	c #A0A0A0",
"(*	c #A2A1A1",
"_*	c #A2A3A2",
":*	c #AAA9A9",
"  . + @ # $ % & * = - ; > , , '   ) ! ~ { ] ^ / ( _ : < [ } | 1 ",
"2 3 4 5 6 7 8 9 0 a b c d . e @ f g h i j k l m ' n o p q r { s ",
"t u v 7 9 w x b y c z A B @ f C D - E F G H I J ) q { K L L L M ",
"N O w 0 b y c P . e @ $ Q D N R S T U V W X Y I Z `  .& ..+.@.#.",
"; a $.c d . e @ f % & * = R R ' %.&.*.=.-.;.>.,.'.).!.~.{.].^./.",
", (.d _.@ :.<.& N = - i S [.}.|.1.2.3.4.5.6.7.8.9.0.a.b.c.d.e.f.",
"g.h.@ f % D N R - S i.j.k.l.m.n.o.p.q.r.s.t.u.v.w.x.y.z.A.B.C.D.",
"q % & E.F.G.H.> I.J.K.L.M.N.O.P.Q.R.S.T.U.V.W.X.Y.Z.`. +.+++@+#+",
"$+= - > , ' %+&+*+=+-+;+>+,+'+)+!+~+{+]+^+/+(+_+:+<+[+}+|+1+2+3+",
"4+> ' 5+6+7+8+9+0+a+b+c+d+e+f+g+@.h+i+j+k+l+m+n+o+p+q+r+s+t+J u+",
"v+) w+x+y+z+A+B+b+C+d+D+E+} F+G+H+I+J+K+L+M+N+O+P+Q+R+S+T+U+V+W+",
"| X+Y+Z+`+ @.@+@@@#@$@%@| &@I+*@=@-@;@#.>@,@,@'@)@!@~@{@]@^@/@(@",
"h+_@:@<@[@}@|@1@2@3@4@H+*@5@-@6@#.7@N+8@/.)@9@0@a@b@^@c@d@e@f@g@",
"h@i@j@k@l@m@n@o@p@q@r@M s@t@u@>@P+v@w@x@y@z@A@B@^@C@d@D@E@u+F@G@",
"H@I@J@K@L@M@N@O@P@Q@6@#.R@N+,@S@f.9@y@A@b@T@U@V@e@W@E@X@Y@Z@(@`@",
" #.#+#@###$#%#&#*#=#-#,@/.;#9@y@a@b@T@>#V@d@f@E@u+Y@,#'#)#!#g@~#",
"/.{#]#^#/#(#_#:#/./.w@V+y@z@<#T@[#V@d@}#E@u+F@,#|#1#!#2#3#4#G@5#",
")@6#7#8#9#0#7#)@)@a#!@A@b#c#U@d#e@e#f#F@g#h#(@!#g@3#3#i#j#`@`@k#",
"a@R@l#/.x@y@y@y@m#b@T@U@V@d@n#o#X@F@p#'#)#!#g@q#r#s#t#u#v#w#x#y#",
"^@z#w@A#y@z@A@T@^@c@d@D@E@u+F@,#|#B#C#D#3#E#F#G#H#I#J#K#L#M#N#O#",
"D@P#z@Q#T@^@U@d@D@R#S#F@,#|#(@T#D#U#4#E#V#`@W#X#Y#Z#`# $.$+$@$#$",
"u+b@$$%$d@}#e#&$*$,#|#=$)#-$g@;$i#i#V#>$,$'$)$!$~${$]$^$/$($_$:$",
",#d@<$[$}$|$1$)#=$2$3$4$5$6$7$8$5$9$0$a$b$c$d$e$f$g$h$i$j$k$l$m$",
"g@w@n$o$p$q$r$s$t$u$v$w$x$y$z$A$B$C$D$E$F$G$H$I$J$K$L$M$N$O$P$Q$",
"7$R$S$T$U$V$W$X$Y$Z$`$ %.%+%@%#%$%%%&%*%=%-%;%>%,%'%)%!%~%{%]%^%",
">$/%(%_%:%<%[%}%|%1%2%3%4%5%6%7%8%9%0%a%b%c%d%e%f%g%h%i%j%k%l%m%",
"n%o%p%q%r%s%t%u%v%w%x%y%z%A%B%C%D%E%F%G%H%I%J%K%L%M%|#N%O%P%`@Q%",
"R%S%T%U%V%W%X%Y%Z%1%`% &.&+&@&#&$&%&&&q%*&=&-&O#;&m$>&^%Q$>&,&'&",
")&!&~&{&]&^&[%/&(&_&:&<&[&}&|&1&2&3&4&5&6&7&8&9&0&a&b&c&d&e&f&g&",
"Q$h&i&j&k&l&m&n&o&p&q&r&s&t&u&v&w&x&c y&z&A&8$B&C&D&E&'&F&G&H&I&",
"m$~#J&K&L&M&N&O&l#P&Q&R&S&T&u+U&V&w@W&V&X&Y&k#a&Z&`& *H&.*+*@*#*",
"$*;&O#%*8$&***x#m$Q$=*,$-*k#;*>*,*'*)*!*'*m%~*+*{*]*^*#*/*(*_*:*"};
