/* XPM */
static char * breakdown_xpm[] = {
"32 32 471 2",
"  	c #0D0D0D",
". 	c #0E0E0E",
"+ 	c #0F0F0F",
"@ 	c #101010",
"# 	c #111111",
"$ 	c #121212",
"% 	c #131313",
"& 	c #131314",
"* 	c #141414",
"= 	c #151515",
"- 	c #161616",
"; 	c #171717",
"> 	c #181818",
", 	c #191919",
"' 	c #1A1A1A",
") 	c #1B1B1B",
"! 	c #1C1C1C",
"~ 	c #1D1D1D",
"{ 	c #1E1E1E",
"] 	c #1F1F1F",
"^ 	c #202020",
"/ 	c #212221",
"( 	c #232323",
"_ 	c #242424",
": 	c #252525",
"< 	c #262626",
"[ 	c #272727",
"} 	c #282828",
"| 	c #292929",
"1 	c #2A2B2A",
"2 	c #2B2C2C",
"3 	c #2D2D2D",
"4 	c #101111",
"5 	c #212121",
"6 	c #222222",
"7 	c #262625",
"8 	c #2A2A2A",
"9 	c #2B2B2B",
"0 	c #2C2C2C",
"a 	c #2D2D2E",
"b 	c #2F2F2F",
"c 	c #303030",
"d 	c #292829",
"e 	c #2E2E2E",
"f 	c #30302F",
"g 	c #313131",
"h 	c #323232",
"i 	c #333333",
"j 	c #141415",
"k 	c #161515",
"l 	c #201F1F",
"m 	c #202021",
"n 	c #2E2E2D",
"o 	c #1F1E1D",
"p 	c #353535",
"q 	c #363636",
"r 	c #240407",
"s 	c #590009",
"t 	c #430007",
"u 	c #0A0707",
"v 	c #30302A",
"w 	c #4A493B",
"x 	c #555441",
"y 	c #636149",
"z 	c #706D4F",
"A 	c #747152",
"B 	c #6E6C50",
"C 	c #565442",
"D 	c #251D15",
"E 	c #66340D",
"F 	c #85400D",
"G 	c #502A0E",
"H 	c #161413",
"I 	c #343434",
"J 	c #3A3A3A",
"K 	c #290909",
"L 	c #CF413E",
"M 	c #F3152C",
"N 	c #DD001A",
"O 	c #6C000C",
"P 	c #1A1812",
"Q 	c #737051",
"R 	c #7F7C58",
"S 	c #8D895F",
"T 	c #989465",
"U 	c #9E9A68",
"V 	c #A09C69",
"W 	c #5F5D3F",
"X 	c #987C3F",
"Y 	c #D4A660",
"Z 	c #CE661C",
"` 	c #B2530F",
" .	c #552C0F",
"..	c #3D3D3D",
"+.	c #1D1E1E",
"@.	c #1E1E1F",
"#.	c #1F1F1D",
"$.	c #9D5141",
"%.	c #FFAF9B",
"&.	c #FF5A64",
"*.	c #FE0322",
"=.	c #CC0017",
"-.	c #420007",
";.	c #636145",
">.	c #84815B",
",.	c #918E62",
"'.	c #9C9868",
").	c #A39F6C",
"!.	c #A6A16D",
"~.	c #554C2F",
"{.	c #DDBD72",
"].	c #DDBB7C",
"^.	c #D4742F",
"/.	c #C95C10",
"(.	c #9F4C10",
"_.	c #302015",
":.	c #404040",
"<.	c #242323",
"[.	c #32322E",
"}.	c #464539",
"|.	c #2C2B22",
"1.	c #BF1B2A",
"2.	c #FF5F68",
"3.	c #FE2741",
"4.	c #FC0120",
"5.	c #DB001A",
"6.	c #8A000E",
"7.	c #4F4D38",
"8.	c #7F7C59",
"9.	c #89865F",
"0.	c #949065",
"a.	c #9C9869",
"b.	c #A09C6B",
"c.	c #5D4929",
"d.	c #D7792D",
"e.	c #DA7F38",
"f.	c #D16517",
"g.	c #C55A11",
"h.	c #A85011",
"i.	c #4D2C13",
"j.	c #424242",
"k.	c #272627",
"l.	c #2E2E2C",
"m.	c #424137",
"n.	c #51503F",
"o.	c #575643",
"p.	c #3B392C",
"q.	c #A40013",
"r.	c #EC0420",
"s.	c #F0001D",
"t.	c #E2001C",
"u.	c #C80016",
"v.	c #7F000D",
"w.	c #33322D",
"x.	c #474740",
"y.	c #484741",
"z.	c #464540",
"A.	c #484842",
"B.	c #545348",
"C.	c #413728",
"D.	c #AC5614",
"E.	c #BE5B13",
"F.	c #B95812",
"G.	c #A95111",
"H.	c #994C11",
"I.	c #3B281A",
"J.	c #474747",
"K.	c #343430",
"L.	c #4B4A3D",
"M.	c #545342",
"N.	c #595744",
"O.	c #5B5946",
"P.	c #504F3E",
"Q.	c #50040B",
"R.	c #BB0014",
"S.	c #C20014",
"T.	c #BD0013",
"U.	c #99000F",
"V.	c #260609",
"W.	c #373737",
"X.	c #3C3C3C",
"Y.	c #3E3E3E",
"Z.	c #3F3F3F",
"`.	c #414141",
" +	c #343333",
".+	c #583112",
"++	c #954A11",
"@+	c #9B4D12",
"#+	c #854412",
"$+	c #3F2612",
"%+	c #333332",
"&+	c #4B4B4B",
"*+	c #1B1A1A",
"=+	c #311D0D",
"-+	c #45240B",
";+	c #22170E",
">+	c #2F2E26",
",+	c #555443",
"'+	c #5A5846",
")+	c #5A5946",
"!+	c #585646",
"~+	c #4C4B40",
"{+	c #292726",
"]+	c #39070B",
"^+	c #510109",
"/+	c #340106",
"(+	c #0A0505",
"_+	c #434343",
":+	c #444444",
"<+	c #454545",
"[+	c #383737",
"}+	c #312823",
"|+	c #29201A",
"1+	c #1C1A1A",
"2+	c #303130",
"3+	c #4C4D4D",
"4+	c #4F4F4F",
"5+	c #533717",
"6+	c #B36E2B",
"7+	c #BD560E",
"8+	c #9A4B0F",
"9+	c #302011",
"0+	c #424134",
"a+	c #5A5847",
"b+	c #515043",
"c+	c #3F3E3B",
"d+	c #393938",
"e+	c #393A3A",
"f+	c #393939",
"g+	c #464646",
"h+	c #484848",
"i+	c #494949",
"j+	c #4A4A4A",
"k+	c #4C4C4C",
"l+	c #4D4D4D",
"m+	c #505050",
"n+	c #515151",
"o+	c #525252",
"p+	c #201C16",
"q+	c #BEA867",
"r+	c #CCB27B",
"s+	c #CF6F29",
"t+	c #C65D11",
"u+	c #8E4811",
"v+	c #2C271E",
"w+	c #4E4D43",
"x+	c #3B3B3A",
"y+	c #40403F",
"z+	c #4E4E4E",
"A+	c #535353",
"B+	c #555555",
"C+	c #565656",
"D+	c #342012",
"E+	c #C78243",
"F+	c #CE884D",
"G+	c #D0671D",
"H+	c #CA5E11",
"I+	c #AB5311",
"J+	c #442A14",
"K+	c #3D3D3C",
"L+	c #404041",
"M+	c #4A494A",
"N+	c #4E4E4D",
"O+	c #545454",
"P+	c #575757",
"Q+	c #585858",
"R+	c #5A5A5A",
"S+	c #372417",
"T+	c #B45310",
"U+	c #C55E14",
"V+	c #C55B10",
"W+	c #B55610",
"X+	c #A24F11",
"Y+	c #412815",
"Z+	c #424243",
"`+	c #474647",
" @	c #4E4F4E",
".@	c #525352",
"+@	c #595959",
"@@	c #5B5B5B",
"#@	c #5C5C5C",
"$@	c #5D5D5D",
"%@	c #383838",
"&@	c #292623",
"*@	c #81400F",
"=@	c #A34E0F",
"-@	c #A24F10",
";@	c #9E4E10",
">@	c #6B3810",
",@	c #2A2624",
"'@	c #444343",
")@	c #575858",
"!@	c #5E5F5E",
"~@	c #606060",
"{@	c #616161",
"]@	c #3B3B3B",
"^@	c #393A39",
"/@	c #2E241E",
"(@	c #512C11",
"_@	c #532D10",
":@	c #301F11",
"<@	c #1B1B1A",
"[@	c #5E5E5E",
"}@	c #605F5F",
"|@	c #626262",
"1@	c #646464",
"2@	c #656565",
"3@	c #5A5959",
"4@	c #5F5F5F",
"5@	c #606160",
"6@	c #636363",
"7@	c #666666",
"8@	c #676767",
"9@	c #696969",
"0@	c #484747",
"a@	c #4F4F50",
"b@	c #686868",
"c@	c #6A6A6A",
"d@	c #6B6B6B",
"e@	c #6D6D6D",
"f@	c #505150",
"g@	c #545455",
"h@	c #5F605F",
"i@	c #6C6C6C",
"j@	c #6E6E6E",
"k@	c #6F6F6F",
"l@	c #717070",
"m@	c #555655",
"n@	c #606161",
"o@	c #707070",
"p@	c #717171",
"q@	c #737373",
"r@	c #747474",
"s@	c #50504F",
"t@	c #5A5A5B",
"u@	c #686869",
"v@	c #6F7070",
"w@	c #737272",
"x@	c #757575",
"y@	c #777777",
"z@	c #787878",
"A@	c #505051",
"B@	c #5B5B5C",
"C@	c #727272",
"D@	c #767676",
"E@	c #797979",
"F@	c #7B7B7B",
"G@	c #7C7C7C",
"H@	c #343325",
"I@	c #413F2C",
"J@	c #2B2B25",
"K@	c #33322F",
"L@	c #42402E",
"M@	c #42412E",
"N@	c #2F2F28",
"O@	c #343327",
"P@	c #43422F",
"Q@	c #373735",
"R@	c #3D3C2C",
"S@	c #3F3E2D",
"T@	c #7A7A7A",
"U@	c #7D7D7D",
"V@	c #7E7E7E",
"W@	c #808080",
"X@	c #B8B26E",
"Y@	c #FFF799",
"Z@	c #F8F195",
"`@	c #FDF598",
" #	c #F1E990",
".#	c #3A3829",
"+#	c #FAF296",
"@#	c #6B6841",
"##	c #A39E62",
"$#	c #8A8653",
"%#	c #D6D080",
"&#	c #E0D987",
"*#	c #7C7D7D",
"=#	c #7F7F7F",
"-#	c #818181",
";#	c #828282",
">#	c #848484",
",#	c #2A2919",
"'#	c #8C8854",
")#	c #4F4D31",
"!#	c #373526",
"~#	c #B2AC6B",
"{#	c #3B3924",
"]#	c #E7DF8A",
"^#	c #11110D",
"/#	c #FBF396",
"(#	c #3C3A24",
"_#	c #7E7E7D",
":#	c #838383",
"<#	c #858585",
"[#	c #868686",
"}#	c #888887",
"|#	c #F2EA91",
"1#	c #FBF397",
"2#	c #DFD886",
"3#	c #1C1B15",
"4#	c #343223",
"5#	c #AFAA69",
"6#	c #252416",
"7#	c #FEF698",
"8#	c #E9E28C",
"9#	c #D9D282",
"0#	c #E1DA87",
"a#	c #878787",
"b#	c #888889",
"c#	c #8A8A8A",
"d#	c #8B8B8B",
"e#	c #4C492D",
"f#	c #6F6B42",
"g#	c #888351",
"h#	c #2C2A1B",
"i#	c #090909",
"j#	c #C5BF76",
"k#	c #19180F",
"l#	c #FCF597",
"m#	c #565333",
"n#	c #FCF497",
"o#	c #888888",
"p#	c #898989",
"q#	c #8C8C8C",
"r#	c #8E8E8E",
"s#	c #8F8F8F",
"t#	c #B7B26E",
"u#	c #D5CE80",
"v#	c #7C784A",
"w#	c #2C2B1C",
"x#	c #D1CB7E",
"y#	c #B5AF6D",
"z#	c #1A1911",
"A#	c #8D8D8D",
"B#	c #909090",
"C#	c #929292",
"D#	c #939393",
"E#	c #67643E",
"F#	c #8F8A56",
"G#	c #8D8854",
"H#	c #69653F",
"I#	c #1E1E1B",
"J#	c #26251D",
"K#	c #8F8A55",
"L#	c #20201C",
"M#	c #5C5937",
"N#	c #8E8955",
"O#	c #20201B",
"P#	c #21201D",
"Q#	c #898452",
"R#	c #7E7A4B",
"S#	c #919191",
"T#	c #949494",
"U#	c #959595",
"V#	c #979797",
"W#	c #6E6F6F",
"X#	c #323333",
"Y#	c #313030",
"Z#	c #757676",
"`#	c #949493",
" $	c #969696",
".$	c #989898",
"+$	c #999999",
"@$	c #9B9B9B",
"#$	c #757576",
"$$	c #909190",
"%$	c #959495",
"&$	c #9A9A9A",
"*$	c #9C9C9C",
"=$	c #9D9D9D",
"-$	c #9E9E9E",
"  . + @ # $ % & * = - ; > , ' ) ! ~ { ] ^ / ( _ : < [ } | 1 2 3 ",
"@ 4 # $ % * = - ; > , ' ) ! ~ { ] ^ 5 6 ( _ 7 [ } | 8 9 0 a b c ",
"$ % * = - ; > , ' ) ! ~ { ] ^ 5 6 ( _ : < [ d 8 9 0 3 e f g h i ",
"j k - ; > , ' ) ! ~ { l m ^ ! ~ _ < [ } | 9 0 3 e n ( o 6 g p q ",
"; > , ' ) ! ~ { ] ^ 5 6 > r s t u v w x y z A B C D E F G H I J ",
"' ) ! ~ { ] ^ 5 6 ( _ 6 K L M N O P Q R S T U V W X Y Z `  .6 ..",
"! +.@.l 5 6 ( _ : < } #.$.%.&.*.=.-.;.>.,.'.).!.~.{.].^./.(._.:.",
"] ^ 5 6 <.: < [ } [.}.|.1.2.3.4.5.6.7.8.9.0.a.b.c.d.e.f.g.h.i.j.",
"6 ( _ : k.} | l.m.n.o.p.q.r.s.t.u.v.w.x.y.z.A.B.C.D.E.F.G.H.I.J.",
": < [ [ : | K.L.M.N.O.P.Q.R.S.T.U.V.W.X...Y.Z.`. +.+++@+#+$+%+&+",
"} | *+=+-+;+>+,+'+)+!+~+{+]+^+/+(+9 Y.Z.:.j._+:+<+[+}+|+1+2+3+4+",
"9 ^ 5+6+7+8+9+0+a+b+c+d+e+f+i e f+:.`.j.:+<+g+h+i+j+k+k+l+m+n+o+",
"e p+q+r+s+t+u+v+w+x+J X...Y.y+`.j._+<+g+J.i+j+&+3+z+4+n+o+A+B+C+",
"g D+E+F+G+H+I+J+K+K+Y.Z.L+j._+:+g+J.h+M+&+k+N+4+m+o+A+O+C+P+Q+R+",
"p S+T+U+V+W+X+Y+Z.:.`.Z+:+<+`+h+i+j+k+l+ @m+n+.@O+B+P+Q++@@@#@$@",
"%@&@*@=@-@;@>@,@j.'@<+g+J.i+j+&+l+z+4+n+o+A+B+C+)@+@R+#@$@!@~@{@",
"]@^@/@(@_@:@<@:.g+J.h+j+&+k+z+4+m+o+A+O+C+P++@R+@@$@[@}@{@|@1@2@",
"Z.:.`.X.q q :+h+i+&+k+l+4+m+n+A+O+B+P+Q+3@@@#@[@4@5@|@6@2@7@8@9@",
"j.:+<+g+0@i+j+&+l+z+a@n+o+O+B+C+Q++@R+#@$@4@~@{@6@1@7@8@b@c@d@e@",
"g+J.h+j+&+k+z+4+f@o+A+g@C+P++@R+@@$@[@h@{@|@1@2@8@b@9@d@i@j@k@l@",
"i+&+k+l+4+m+n+A+O+m@P+Q+R+@@#@[@4@n@|@6@2@7@b@9@c@i@e@k@o@p@q@r@",
"l+z+s@n+o+O+B+C+Q++@t@#@$@4@~@{@6@1@7@8@u@c@d@e@j@v@p@w@r@x@y@z@",
"A@o+A+B+C+P++@R+B@$@[@}@{@|@1@2@8@b@9@d@i@j@k@p@C@q@x@D@z@E@F@G@",
"O+<+H@I@I@I@J@k+K@L@M@L@N@h+Q+O@P@Q@j+R@S@&+p@r@D@y@E@T@G@U@V@W@",
"Q+%@X@Y@Z@`@ #H@.#Y@Y@Y@+#@#3 ##Y@$#- %#&#2+e@D@T@F@*#V@=#-#;#>#",
"#@J X@Y@,#'#Y@)#!#Y@~#{#]# #^###Y@/#(#%#&#| 2@y@_#=#W@;#:#<#[#}#",
"4@X.X@Y@|#1#2#3#4#Y@##@ 5#Y@6###7#8#9#0#&#( ~@z@-#:#>#[#a#b#c#d#",
"6@Y.X@Y@e#f#Y@g#h#Y@##i#j#`@k###l#m#n#Y@&#^ 4@F@<#a#o#p#d#q#r#s#",
"8@:.X@Y@t#u#Y@v#w#Y@8#x#Y@y#+ ##l#z#'#Y@&#^ {@=#p#c#q#A#s#B#C#D#",
"d@h+E#F#F#G#H#I#J#F#F#K#@#L#b M#N#O#P#Q#R#} b@:#A#r#B#S#D#T#U#V#",
"W#d@m+Y.X#Y#f+J.l+:+]@p ..&++@n+j+o+Q+i+:++@Z#p#S#C#`#U# $.$+$@$",
"C@C@e@1@#@@@[@2@e@e@8@|@1@d@#$E@D@x@E@E@x@T@[#$$%$ $V#+$&$*$=$-$"};
