/* XPM */
static char * breakdownPrev_xpm[] = {
"32 32 750 2",
"  	c #292929",
". 	c #1C1C1C",
"+ 	c #1D1D1C",
"@ 	c #1E1E1E",
"# 	c #1F1E1E",
"$ 	c #201F1F",
"% 	c #202020",
"& 	c #212121",
"* 	c #222322",
"= 	c #232323",
"- 	c #242424",
"; 	c #252525",
"> 	c #262626",
", 	c #272727",
"' 	c #282828",
") 	c #2A2A2A",
"! 	c #2C2C2B",
"~ 	c #2C2D2C",
"{ 	c #2E2E2E",
"] 	c #2E2F2E",
"^ 	c #303030",
"/ 	c #303131",
"( 	c #323132",
"_ 	c #333333",
": 	c #343434",
"< 	c #353435",
"[ 	c #363736",
"} 	c #373737",
"| 	c #383838",
"1 	c #454645",
"2 	c #191A1A",
"3 	c #101010",
"4 	c #111211",
"5 	c #121212",
"6 	c #141313",
"7 	c #141414",
"8 	c #141515",
"9 	c #161615",
"0 	c #171717",
"a 	c #181818",
"b 	c #181918",
"c 	c #1A1A1A",
"d 	c #1B1B1B",
"e 	c #1D1D1D",
"f 	c #1F1F1F",
"g 	c #222223",
"h 	c #272627",
"i 	c #292829",
"j 	c #292A2A",
"k 	c #2A2B2B",
"l 	c #2C2C2C",
"m 	c #2E2D2D",
"n 	c #393939",
"o 	c #1F201F",
"p 	c #121213",
"q 	c #131314",
"r 	c #161617",
"s 	c #171817",
"t 	c #191919",
"u 	c #1B1C1B",
"v 	c #1C1C1D",
"w 	c #1E1D1D",
"x 	c #212021",
"y 	c #222222",
"z 	c #232322",
"A 	c #232324",
"B 	c #242425",
"C 	c #252526",
"D 	c #272728",
"E 	c #2F3030",
"F 	c #313131",
"G 	c #3F3F3F",
"H 	c #151516",
"I 	c #1C1B1B",
"J 	c #212020",
"K 	c #222121",
"L 	c #29292A",
"M 	c #2A2B2C",
"N 	c #2C2C2D",
"O 	c #2A2C2D",
"P 	c #202225",
"Q 	c #202325",
"R 	c #2F2F30",
"S 	c #363636",
"T 	c #424242",
"U 	c #191918",
"V 	c #282827",
"W 	c #31312D",
"X 	c #3C3C33",
"Y 	c #474639",
"Z 	c #525140",
"` 	c #605E47",
" .	c #6C6A4E",
"..	c #716E50",
"+.	c #6F6C50",
"@.	c #535342",
"#.	c #211A15",
"$.	c #5B2B08",
"%.	c #823C09",
"&.	c #4D280C",
"*.	c #131313",
"=.	c #303132",
"-.	c #474747",
";.	c #1A1B1B",
">.	c #1D1C1D",
",.	c #1E1F1F",
"'.	c #1F1F20",
").	c #252625",
"!.	c #2C2C2A",
"~.	c #3E3D34",
"{.	c #535240",
"].	c #646249",
"^.	c #6E6B4E",
"/.	c #767352",
"(.	c #807D58",
"_.	c #8B885E",
":.	c #948F62",
"<.	c #999565",
"[.	c #A19D6B",
"}.	c #646243",
"|.	c #806935",
"1.	c #DAA75D",
"2.	c #D56F22",
"3.	c #B8540C",
"4.	c #51290B",
"5.	c #1A1D1F",
"6.	c #484949",
"7.	c #282929",
"8.	c #1C1D1D",
"9.	c #1F2424",
"0.	c #141E1D",
"a.	c #121C1B",
"b.	c #252A26",
"c.	c #454438",
"d.	c #545340",
"e.	c #636148",
"f.	c #6A684C",
"g.	c #757252",
"h.	c #7A7755",
"i.	c #7F7D58",
"j.	c #88855C",
"k.	c #8F8B61",
"l.	c #959164",
"m.	c #989566",
"n.	c #5E5534",
"o.	c #D0B46D",
"p.	c #E5CF92",
"q.	c #D67F3B",
"r.	c #CD5B0D",
"s.	c #A24D0E",
"t.	c #342112",
"u.	c #434647",
"v.	c #242323",
"w.	c #272726",
"x.	c #1B1F1F",
"y.	c #1F0004",
"z.	c #590004",
"A.	c #5B0009",
"B.	c #1D0908",
"C.	c #383D2E",
"D.	c #64624A",
"E.	c #66644B",
"F.	c #6B694E",
"G.	c #726F52",
"H.	c #767354",
"I.	c #777454",
"J.	c #7B7856",
"K.	c #827E5B",
"L.	c #88855E",
"M.	c #908C62",
"N.	c #929266",
"O.	c #65502D",
"P.	c #D17C32",
"Q.	c #E08C44",
"R.	c #D46B1E",
"S.	c #C85B0F",
"T.	c #B25410",
"U.	c #5A3112",
"V.	c #414447",
"W.	c #2F2F2F",
"X.	c #242728",
"Y.	c #20110F",
"Z.	c #BD4A40",
"`.	c #FE3845",
" +	c #FB011E",
".+	c #9F000F",
"++	c #100504",
"@+	c #4F513E",
"#+	c #67654D",
"$+	c #62614B",
"%+	c #5B5947",
"&+	c #575545",
"*+	c #535344",
"=+	c #555345",
"-+	c #545345",
";+	c #504E44",
">+	c #4F4F45",
",+	c #55564B",
"'+	c #463B2A",
")+	c #A54F0E",
"!+	c #C55C10",
"~+	c #BC5811",
"{+	c #B05411",
"]+	c #A24E10",
"^+	c #452A16",
"/+	c #494C4E",
"(+	c #323231",
"_+	c #232627",
":+	c #1E2326",
"<+	c #262829",
"[+	c #1F2524",
"}+	c #5F2E24",
"|+	c #FFBCA1",
"1+	c #FF8482",
"2+	c #FF0C2C",
"3+	c #EE001A",
"4+	c #680007",
"5+	c #262A23",
"6+	c #4B4B42",
"7+	c #3D3D3A",
"8+	c #383837",
"9+	c #3A3A39",
"0+	c #3A3A3A",
"a+	c #3C3B3B",
"b+	c #3B3B3B",
"c+	c #3B3B3D",
"d+	c #3C3C3E",
"e+	c #3E3F41",
"f+	c #2E2F31",
"g+	c #522C0F",
"h+	c #96480E",
"i+	c #9D4D10",
"j+	c #894511",
"k+	c #46260E",
"l+	c #2B2B2B",
"m+	c #575757",
"n+	c #353535",
"o+	c #191A1C",
"p+	c #24150C",
"q+	c #3A1F0B",
"r+	c #201711",
"s+	c #0E1B18",
"t+	c #79111A",
"u+	c #FF5B65",
"v+	c #FF3B50",
"w+	c #FF0424",
"x+	c #EF001C",
"y+	c #AB000E",
"z+	c #271417",
"A+	c #343939",
"B+	c #3C3C3C",
"C+	c #3E3D3D",
"D+	c #404040",
"E+	c #414241",
"F+	c #444444",
"G+	c #454646",
"H+	c #323433",
"I+	c #38291E",
"J+	c #372417",
"K+	c #1E1A16",
"L+	c #232729",
"M+	c #494A4A",
"N+	c #5A595A",
"O+	c #1D1F21",
"P+	c #3C2B14",
"Q+	c #A46526",
"R+	c #BC5710",
"S+	c #92470E",
"T+	c #231E0D",
"U+	c #5E000B",
"V+	c #F1001F",
"W+	c #F1011E",
"X+	c #E8001B",
"Y+	c #DA0019",
"Z+	c #9B000C",
"`+	c #271B1C",
" @	c #3B3E3F",
".@	c #3D3D3D",
"+@	c #3E3E3F",
"@@	c #403F40",
"#@	c #414041",
"$@	c #434343",
"%@	c #454545",
"&@	c #464646",
"*@	c #484747",
"=@	c #494949",
"-@	c #4B4C4C",
";@	c #46494B",
">@	c #434648",
",@	c #454748",
"'@	c #505050",
")@	c #525152",
"!@	c #5C5C5C",
"~@	c #38393A",
"{@	c #201C16",
"]@	c #AB975A",
"^@	c #D7BD82",
"/@	c #D5732C",
"(@	c #D05F0E",
"_@	c #8F4B11",
":@	c #360D09",
"<@	c #A2000D",
"[@	c #C80013",
"}@	c #C20013",
"|@	c #9B000E",
"1@	c #2D0105",
"2@	c #2C3131",
"3@	c #414142",
"4@	c #414140",
"5@	c #444343",
"6@	c #444545",
"7@	c #4A4A4A",
"8@	c #4C4B4B",
"9@	c #4C4D4D",
"0@	c #4E4E4E",
"a@	c #515252",
"b@	c #535353",
"c@	c #545453",
"d@	c #545455",
"e@	c #606060",
"f@	c #373A3C",
"g@	c #322013",
"h@	c #C18041",
"i@	c #D29459",
"j@	c #D26A20",
"k@	c #CE5E0E",
"l@	c #B85811",
"m@	c #4E2E11",
"n@	c #250C11",
"o@	c #4A030B",
"p@	c #3A0006",
"q@	c #0F0405",
"r@	c #1F2625",
"s@	c #434344",
"t@	c #434243",
"u@	c #454546",
"v@	c #474746",
"w@	c #484848",
"x@	c #49494A",
"y@	c #4B4B4B",
"z@	c #4C4C4C",
"A@	c #4D4D4D",
"B@	c #4E4F4F",
"C@	c #515251",
"D@	c #545454",
"E@	c #565656",
"F@	c #585858",
"G@	c #646364",
"H@	c #3B3E41",
"I@	c #352418",
"J@	c #B1500D",
"K@	c #CB5F16",
"L@	c #C85C0F",
"M@	c #BC5810",
"N@	c #AF5510",
"O@	c #583316",
"P@	c #2F383B",
"Q@	c #2D3737",
"R@	c #283130",
"S@	c #343737",
"T@	c #464545",
"U@	c #474748",
"V@	c #4F4F4F",
"W@	c #515151",
"X@	c #525252",
"Y@	c #555455",
"Z@	c #575857",
"`@	c #595959",
" #	c #5A5A5B",
".#	c #676767",
"+#	c #444546",
"@#	c #292724",
"##	c #76380B",
"$#	c #AF520D",
"%#	c #AE5310",
"&#	c #A24F10",
"*#	c #753A0C",
"=#	c #31261F",
"-#	c #404243",
";#	c #505151",
">#	c #5A5A5A",
",#	c #5B5C5B",
"'#	c #5D5D5D",
")#	c #5E5E5E",
"!#	c #6A6A6A",
"~#	c #37393A",
"{#	c #2D2620",
"]#	c #4F2C11",
"^#	c #562D0F",
"/#	c #351F0E",
"(#	c #191817",
"_#	c #38393B",
":#	c #4E4D4E",
"<#	c #505150",
"[#	c #555454",
"}#	c #5B5B5B",
"|#	c #5D5D5C",
"1#	c #605F5F",
"2#	c #616161",
"3#	c #626262",
"4#	c #6E6F6E",
"5#	c #3F4041",
"6#	c #333639",
"7#	c #2A2E31",
"8#	c #2B2E31",
"9#	c #4B4A4A",
"0#	c #4E4E4F",
"a#	c #504F50",
"b#	c #525353",
"c#	c #555555",
"d#	c #575756",
"e#	c #5A5959",
"f#	c #5B5B5A",
"g#	c #626362",
"h#	c #646464",
"i#	c #656564",
"j#	c #666666",
"k#	c #727272",
"l#	c #4C4D4C",
"m#	c #555554",
"n#	c #565655",
"o#	c #5A5A59",
"p#	c #605F60",
"q#	c #626161",
"r#	c #605856",
"s#	c #615755",
"t#	c #625956",
"u#	c #655C5A",
"v#	c #6C6968",
"w#	c #6B6C6D",
"x#	c #6B6A6A",
"y#	c #767575",
"z#	c #464747",
"A#	c #4A494A",
"B#	c #5C5D5D",
"C#	c #5E5E5D",
"D#	c #5F5F5F",
"E#	c #494A4B",
"F#	c #12414E",
"G#	c #114E5F",
"H#	c #115263",
"I#	c #154D5C",
"J#	c #303C40",
"K#	c #63605F",
"L#	c #6F6F6F",
"M#	c #787878",
"N#	c #4A4B4B",
"O#	c #4D4E4E",
"P#	c #555655",
"Q#	c #565756",
"R#	c #5D5E5E",
"S#	c #606161",
"T#	c #636363",
"U#	c #656565",
"V#	c #6E6B6B",
"W#	c #3A4041",
"X#	c #0099C5",
"Y#	c #00C2F7",
"Z#	c #00A2CF",
"`#	c #00BCF0",
" $	c #0089B0",
".$	c #2C3031",
"+$	c #7B7B7B",
"@$	c #4F5050",
"#$	c #515152",
"$$	c #575656",
"%$	c #585758",
"&$	c #5C5C5D",
"*$	c #5F5F5E",
"=$	c #626261",
"-$	c #686868",
";$	c #696969",
">$	c #716F6E",
",$	c #3D4344",
"'$	c #009DC9",
")$	c #00BCEF",
"!$	c #001A21",
"~$	c #0086AB",
"{$	c #00C4FA",
"]$	c #162D32",
"^$	c #615C5B",
"/$	c #505052",
"($	c #4D4D50",
"_$	c #4F4F52",
":$	c #505053",
"<$	c #565759",
"[$	c #56565A",
"}$	c #57575A",
"|$	c #58585C",
"1$	c #605F62",
"2$	c #656666",
"3$	c #656665",
"4$	c #646465",
"5$	c #69696A",
"6$	c #6D6D6C",
"7$	c #676769",
"8$	c #666769",
"9$	c #707070",
"0$	c #757372",
"a$	c #404446",
"b$	c #009AC5",
"c$	c #00A4D0",
"d$	c #008BB2",
"e$	c #1E2121",
"f$	c #5D5B5A",
"g$	c #7C7C7C",
"h$	c #3D3B31",
"i$	c #4E4D3B",
"j$	c #52503C",
"k$	c #51503D",
"l$	c #3F3E35",
"m$	c #454548",
"n$	c #41413E",
"o$	c #4E4C3B",
"p$	c #52513E",
"q$	c #53533F",
"r$	c #46443A",
"s$	c #454547",
"t$	c #5B5C5D",
"u$	c #434239",
"v$	c #535340",
"w$	c #434240",
"x$	c #525254",
"y$	c #48473A",
"z$	c #4F4E3D",
"A$	c #50504F",
"B$	c #7B7878",
"C$	c #424748",
"D$	c #009BC7",
"E$	c #00C0F4",
"F$	c #016580",
"G$	c #055065",
"H$	c #122125",
"I$	c #3E3B3A",
"J$	c #808080",
"K$	c #323336",
"L$	c #938E56",
"M$	c #F6F699",
"N$	c #E8E18A",
"O$	c #EEE98F",
"P$	c #E3E08A",
"Q$	c #4B4933",
"R$	c #302F23",
"S$	c #ECE58B",
"T$	c #F5F093",
"U$	c #F7F193",
"V$	c #ECE98F",
"W$	c #736F45",
"X$	c #13131D",
"Y$	c #7E7A4B",
"Z$	c #F5F5A0",
"`$	c #8F8A56",
" %	c #05050B",
".%	c #ABA665",
"+%	c #D9D27D",
"@%	c #32312E",
"#%	c #757373",
"$%	c #414648",
"%%	c #00A4D3",
"&%	c #00C2F8",
"*%	c #0A1315",
"=%	c #31221E",
"-%	c #4A4645",
";%	c #717171",
">%	c #878787",
",%	c #343538",
"'%	c #9F9A5F",
")%	c #FFFF9F",
"!%	c #3E3C26",
"~%	c #868251",
"{%	c #FFFFAA",
"]%	c #726F46",
"^%	c #28281D",
"/%	c #FFF99A",
"(%	c #CBC67B",
"_%	c #524F31",
":%	c #E8E48D",
"<%	c #F6F094",
"[%	c #11100C",
"}%	c #7D7A4C",
"|%	c #FFFFA7",
"1%	c #FEFA9C",
"2%	c #444229",
"3%	c #AAA466",
"4%	c #E7E089",
"5%	c #2E2D2A",
"6%	c #6A6969",
"7%	c #494C4C",
"8%	c #034B5F",
"9%	c #01566E",
"0%	c #182123",
"a%	c #4E4D4C",
"b%	c #787777",
"c%	c #8D8E8D",
"d%	c #6B6B6C",
"e%	c #36373B",
"f%	c #9B965C",
"g%	c #FFFFA0",
"h%	c #D9D282",
"i%	c #EDEA91",
"j%	c #E9E48E",
"k%	c #2D2C1F",
"l%	c #302E21",
"m%	c #FFFA9A",
"n%	c #B6B16D",
"o%	c #000000",
"p%	c #A6A064",
"q%	c #FFFFA3",
"r%	c #33321E",
"s%	c #747246",
"t%	c #FEFDA0",
"u%	c #F7F397",
"v%	c #DCD685",
"w%	c #CBC57A",
"x%	c #DFD884",
"y%	c #282824",
"z%	c #5C5D5E",
"A%	c #5B504D",
"B%	c #4A3E3B",
"C%	c #515050",
"D%	c #7D7D7D",
"E%	c #868687",
"F%	c #89898A",
"G%	c #929292",
"H%	c #6F7070",
"I%	c #39393C",
"J%	c #9C975C",
"K%	c #FFFE9F",
"L%	c #716D44",
"M%	c #83804F",
"N%	c #FBFA9E",
"O%	c #8C8854",
"P%	c #262518",
"Q%	c #B8B36F",
"R%	c #070708",
"S%	c #BAB570",
"T%	c #FFFFA1",
"U%	c #282718",
"V%	c #797649",
"W%	c #FDF89A",
"X%	c #726E44",
"Y%	c #F7F195",
"Z%	c #D9D280",
"`%	c #252421",
" &	c #595A5B",
".&	c #797979",
"+&	c #7E7E7E",
"@&	c #767676",
"#&	c #757575",
"$&	c #888888",
"%&	c #8C8C8C",
"&&	c #8D8D8E",
"*&	c #969696",
"=&	c #737474",
"-&	c #3A3A3D",
";&	c #A39E60",
">&	c #FFFFA8",
",&	c #B3AE6B",
"'&	c #C8C278",
")&	c #918B56",
"!&	c #262517",
"~&	c #FFFF9D",
"{&	c #F8F296",
"]&	c #D3CD7F",
"^&	c #FFFFA4",
"/&	c #BDB771",
"(&	c #000002",
"_&	c #8A8553",
":&	c #FFFFA6",
"<&	c #201F14",
"[&	c #6F6A42",
"}&	c #FFFFA9",
"|&	c #E6DE88",
"1&	c #252420",
"2&	c #5B5B5C",
"3&	c #7D7E7D",
"4&	c #898989",
"5&	c #8B8B8B",
"6&	c #8E8E8F",
"7&	c #909090",
"8&	c #919191",
"9&	c #999999",
"0&	c #777777",
"a&	c #474648",
"b&	c #5D5A37",
"c&	c #9B9A60",
"d&	c #A6A163",
"e&	c #A29E62",
"f&	c #7D794B",
"g&	c #25251E",
"h&	c #25241C",
"i&	c #948F57",
"j&	c #9E9A5F",
"k&	c #A3A062",
"l&	c #7B794B",
"m&	c #27261E",
"n&	c #1F2024",
"o&	c #525032",
"p&	c #9A995D",
"q&	c #27271E",
"r&	c #878350",
"s&	c #86814E",
"t&	c #262624",
"u&	c #828282",
"v&	c #8D8D8D",
"w&	c #8F8E8E",
"x&	c #8F908F",
"y&	c #949494",
"z&	c #959595",
"A&	c #9D9D9C",
"B&	c #414144",
"C&	c #2B2B2E",
"D&	c #202024",
"E&	c #1E1E21",
"F&	c #202026",
"G&	c #3E3E40",
"H&	c #313135",
"I&	c #28282C",
"J&	c #222225",
"K&	c #242429",
"L&	c #414143",
"M&	c #434345",
"N&	c #343438",
"O&	c #535354",
"P&	c #2F3033",
"Q&	c #4F4E4F",
"R&	c #909191",
"S&	c #939393",
"T&	c #979797",
"U&	c #989998",
"V&	c #9E9E9E",
"W&	c #838383",
"X&	c #6D6D6E",
"Y&	c #626263",
"Z&	c #656566",
"`&	c #6C6C6C",
" *	c #6A6A6B",
".*	c #7B7B7C",
"+*	c #838282",
"@*	c #7E7E7F",
"#*	c #818181",
"$*	c #7F7F7F",
"%*	c #8A8A8A",
"&*	c #9A9B9B",
"**	c #9C9C9C",
"=*	c #9D9D9D",
"-*	c #A0A0A0",
";*	c #A2A1A1",
">*	c #A2A3A2",
",*	c #AAA9A9",
"  . + @ # $ % & * = - ; > , , '   ) ! ~ { ] ^ / ( _ : < [ } | 1 ",
"2 3 4 5 6 7 8 9 0 a b c d . e @ f % & g = - ; h ' i j k l m { n ",
"o p q 7 9 r s b t c u v w @ f x y z A B C h D   ) l { E F F F G ",
"y H r 0 b t c I . e @ $ J K y A A A B C D L ) M N O P & Q R S T ",
"; a U c d . e @ f % & * = A A V W X Y Z `  ...+.@.#.$.%.&.*.=.-.",
", ;.d >.@ ,.'.& * - ).; ; !.~.{.].^./.(._.:.<.[.}.|.1.2.3.4.5.6.",
"7.8.@ f % K y ; 9.0.a.b.c.d.e.f...g.h.i.j.k.l.m.n.o.p.q.r.s.t.u.",
"l % & g v.- w.x.y.z.A.B.C.D.E.F.G.H.I.J.K.L.M.N.O.P.Q.R.S.T.U.V.",
"W.= - > , ' X.Y.Z.`. +.+++@+#+$+%+&+*+=+-+;+>+,+'+)+!+~+{+]+^+/+",
"(+> ' _+:+<+[+}+|+1+2+3+4+5+6+7+8+9+0+a+b+c+d+e+f+g+h+i+j+k+l+m+",
"n+) o+p+q+r+s+t+u+v+w+x+y+z+A+n b+B+C+G D+E+T F+G+H+I+J+K+L+M+N+",
"| O+P+Q+R+S+T+U+V+W+X+Y+Z+`+ @.@+@@@#@T $@%@&@*@=@-@;@>@,@'@)@!@",
"~@{@]@^@/@(@_@:@<@[@}@|@1@2@3@4@T 5@6@G+-.=@7@8@9@0@'@a@b@c@d@e@",
"f@g@h@i@j@k@l@m@n@o@p@q@r@s@t@F+u@v@w@x@y@z@A@B@'@C@b@D@E@m+F@G@",
"H@I@J@K@L@M@N@O@P@Q@R@S@T@%@&@U@6.7@y@A@0@V@W@X@c@Y@E@Z@`@ #!@.#",
"+#@###$#%#&#*#=#-#%@-.w@-.w@7@y@9@0@V@;#X@b@d@E@m+`@>#,#'#)#e@!#",
"-.~#{#]#^#/#(#_#-.-.w@M+y@z@:#V@<#X@b@[#E@m+F@>#}#|#)#1#2#3#G@4#",
"=@4@5#6#7#8#5#=@=@9#-@A@0#a#W@b#c@c#d#F@e#f#!@)#e@2#g#h#i#j#.#k#",
"9@$@%@-.x@y@y@y@l#0@V@W@X@b@m#n#Z@F@o#,#'#)#p#q#r#s#t#u#v#w#x#y#",
"'@z#w@A#y@z@A@V@'@a@b@D@E@m+F@>#}#B#C#D#2#3#.#E#F#G#H#I#J#K#L#M#",
"D@N#z@O#V@'@W@b@D@P#Q#F@>#}#!@R#D#S#3#T#U#j#V#W#X#Y#Z#`# $.$V#+$",
"m+0@@$#$b@[#c#$$%$>#}#&$'#*$e@=$h#h#U#-$;$!#>$,$'$)$!$~${$]$^$+$",
">#b@/$($_$:$<$'#&$[$}$|$1$2$3$4$1$5$6$7$8$9$0$a$b$Y#c$Y#d$e$f$g$",
"e@w@h$i$j$k$l$m$n$o$p$q$r$s$t$u$v$w$x$y$z$A$B$C$D$E$F$G$H$I$2#J$",
"3$K$L$M$N$O$P$Q$R$S$T$U$V$W$X$Y$Z$`$ %.%+%@%#%$%%%&%*%=%-%D#;%>%",
"-$,%'%)%!%~%{%]%^%/%(%_%:%<%[%}%|%1%2%3%4%5%6%7%8%9%0%a%-$b%J$c%",
"d%e%f%g%h%i%j%k%l%m%n%o%p%q%r%s%t%u%v%w%x%y%z%9$A%B%C%;$D%E%F%G%",
"H%I%J%K%L%M%N%O%P%/%Q%R%S%T%U%V%W%X%Y%g%Z%`% &.&+&@&#&+&$&%&&&*&",
"=&-&;&>&,&'&{%)&!&~&{&]&^&/&(&_&:&<&[&}&|&1&2&3&$&$&4&5&6&7&8&9&",
"0&a&b&c&d&e&f&g&h&i&j&k&l&m&n&o&p&q&c r&s&t&4$u&v&w&x&8&G%y&z&A&",
"#&!#B&C&D&E&F&G&%@H&I&J&K&L&m+M&N&w@O&N&P&Q&k#$&R&G%S&z&*&T&U&V&",
"W&+$M#X&4$Y&Z&`&#&0&L#;$ *k#.*+*@*g$J$#*g$$*%*T&&***=*V&-*;*>*,*"};
