/* XPM */
static char * dnaGrabBaked_xpm[] = {
"32 32 300 2",
"  	c None",
". 	c #212421",
"+ 	c #212021",
"@ 	c #181C18",
"# 	c #101410",
"$ 	c #181818",
"% 	c #0A0C0A",
"& 	c #101010",
"* 	c #151516",
"= 	c #322544",
"- 	c #3C3C75",
"; 	c #6666BE",
"> 	c #8181F7",
", 	c #101818",
"' 	c #080C08",
") 	c #100000",
"! 	c #100408",
"~ 	c #0D1010",
"{ 	c #111111",
"] 	c #1A1A23",
"^ 	c #48417C",
"/ 	c #292829",
"( 	c #000400",
"_ 	c #211008",
": 	c #291810",
"< 	c #181008",
"[ 	c #390808",
"} 	c #A53C31",
"| 	c #732C21",
"1 	c #080400",
"2 	c #101310",
"3 	c #121414",
"4 	c #221B2E",
"5 	c #6060B5",
"6 	c #292C29",
"7 	c #391C10",
"8 	c #CE4D39",
"9 	c #DE654A",
"0 	c #C6654A",
"a 	c #7B3C29",
"b 	c #AD3831",
"c 	c #FF9673",
"d 	c #CE8663",
"e 	c #100800",
"f 	c #000000",
"g 	c #191919",
"h 	c #000E10",
"i 	c #0B0B17",
"j 	c #49498A",
"k 	c #000808",
"l 	c #FF7D63",
"m 	c #FFBAAD",
"n 	c #FFA68C",
"o 	c #DE7552",
"p 	c #EF7152",
"q 	c #FF9E73",
"r 	c #C68663",
"s 	c #100C08",
"t 	c #211810",
"u 	c #090902",
"v 	c #000505",
"w 	c #1F1F3C",
"x 	c #7272D7",
"y 	c #8A8AFF",
"z 	c #8181F4",
"A 	c #7E7EF2",
"B 	c #6363BB",
"C 	c #353566",
"D 	c #313031",
"E 	c #311810",
"F 	c #291410",
"G 	c #F79A73",
"H 	c #BD694A",
"I 	c #BD5D42",
"J 	c #EF715A",
"K 	c #453324",
"L 	c #211E2D",
"M 	c #313160",
"N 	c #7E7EEF",
"O 	c #7878E1",
"P 	c #8D8DFF",
"Q 	c #8787FC",
"R 	c #42427E",
"S 	c #1B1B35",
"T 	c #26264A",
"U 	c #182421",
"V 	c #844129",
"W 	c #E77D63",
"X 	c #E78A73",
"Y 	c #CE6D52",
"Z 	c #FF8663",
"` 	c #FF8A63",
" .	c #E77D5A",
"..	c #944931",
"+.	c #6B2821",
"@.	c #AD5142",
"#.	c #EF9A73",
"$.	c #423021",
"%.	c #4C4C93",
"&.	c #6C6CCE",
"*.	c #5656A1",
"=.	c #6060B8",
"-.	c #7E7EEC",
";.	c #9E9EFF",
">.	c #505096",
",.	c #5959A7",
"'.	c #0D0D17",
").	c #0D0D0F",
"!.	c #19191B",
"~.	c #313431",
"{.	c #080808",
"].	c #633429",
"^.	c #F7926B",
"/.	c #BD6952",
"(.	c #BD5D4A",
"_.	c #E7755A",
":.	c #EF795A",
"<.	c #A55139",
"[.	c #522418",
"}.	c #AD5942",
"|.	c #FFB284",
"1.	c #9C6D52",
"2.	c #0B0703",
"3.	c #49498D",
"4.	c #8484F7",
"5.	c #0F0F1F",
"6.	c #2A233C",
"7.	c #19191D",
"8.	c #0F0F0F",
"9.	c #181A18",
"0.	c #E76D52",
"a.	c #5A2C21",
"b.	c #AD5139",
"c.	c #EF8263",
"d.	c #B56D52",
"e.	c #FFA67B",
"f.	c #D6966B",
"g.	c #472036",
"h.	c #464687",
"i.	c #000404",
"j.	c #101012",
"k.	c #161616",
"l.	c #1B1B1B",
"m.	c #393839",
"n.	c #180C08",
"o.	c #CE5142",
"p.	c #DE6D52",
"q.	c #4A3021",
"r.	c #CE6552",
"s.	c #C68A63",
"t.	c #EF8E6B",
"u.	c #7B5539",
"v.	c #2C0907",
"w.	c #2F2546",
"x.	c #06060F",
"y.	c #262526",
"z.	c #1E1D1E",
"A.	c #1E1E1E",
"B.	c #181010",
"C.	c #A54531",
"D.	c #F7A27B",
"E.	c #5A2421",
"F.	c #E7A27B",
"G.	c #421818",
"H.	c #DE7D5A",
"I.	c #6B4131",
"J.	c #1E160D",
"K.	c #191108",
"L.	c #201F20",
"M.	c #282728",
"N.	c #242324",
"O.	c #171818",
"P.	c #081010",
"Q.	c #522C21",
"R.	c #7B4D39",
"S.	c #A54D39",
"T.	c #292018",
"U.	c #843C31",
"V.	c #FFAA7B",
"W.	c #523829",
"X.	c #210C08",
"Y.	c #F78A63",
"Z.	c #C6795A",
"`.	c #4A3429",
" +	c #232223",
".+	c #282828",
"++	c #202120",
"@+	c #424142",
"#+	c #733829",
"$+	c #633829",
"%+	c #9C4D39",
"&+	c #FFBE94",
"*+	c #9C4539",
"=+	c #F78E6B",
"-+	c #A55D4A",
";+	c #232423",
">+	c #4C4A4F",
",+	c #1B2826",
"'+	c #080800",
")+	c #FFC3A5",
"!+	c #EFA284",
"~+	c #944531",
"{+	c #633021",
"]+	c #232523",
"^+	c #3F3940",
"/+	c #3F3967",
"(+	c #180A12",
"_+	c #9C5942",
":+	c #D69673",
"<+	c #392018",
"[+	c #FF8E6B",
"}+	c #312418",
"|+	c #422018",
"1+	c #EF927B",
"2+	c #232346",
"3+	c #301C37",
"4+	c #8C5139",
"5+	c #422C21",
"6+	c #4A2418",
"7+	c #6B3421",
"8+	c #261E3D",
"9+	c #2A1910",
"0+	c #9C5542",
"a+	c #291408",
"b+	c #101008",
"c+	c #1B1B38",
"d+	c #360F14",
"e+	c #5A2818",
"f+	c #632C21",
"g+	c #A55542",
"h+	c #6B3429",
"i+	c #080408",
"j+	c #53539E",
"k+	c #581C30",
"l+	c #090500",
"m+	c #4A2818",
"n+	c #522818",
"o+	c #6F6FD1",
"p+	c #9393FF",
"q+	c #191620",
"r+	c #2E2E56",
"s+	c #9090FF",
"t+	c #AAAAFF",
"u+	c #1C1C30",
"v+	c #3C3C6F",
"w+	c #171731",
"x+	c #2B2F41",
"y+	c #393C39",
"z+	c #394142",
"A+	c #464684",
"B+	c #A1A1FF",
"C+	c #413F50",
"D+	c #424542",
"E+	c #38386C",
"F+	c #242741",
"G+	c #353436",
"H+	c #4A4D4A",
"I+	c #525152",
"J+	c #4A494A",
"K+	c #131327",
"L+	c #171729",
"M+	c #343338",
"N+	c #525552",
"O+	c #525452",
"P+	c #4B4A4B",
"Q+	c #434243",
"R+	c #6161B2",
"S+	c #33344B",
"T+	c #33343E",
"U+	c #404449",
"V+	c #383B38",
"W+	c #4C4B4C",
"X+	c #525352",
"Y+	c #565556",
"Z+	c #525252",
"`+	c #4F525D",
" @	c #4D4E4D",
".@	c #515051",
"+@	c #3E403E",
"@@	c #4F4F4F",
"#@	c #4D4C4D",
"$@	c #4A4A4A",
"%@	c #3C3C3C",
"&@	c #FF0000",
"*@	c #199193",
"=@	c #4F4E4F",
"-@	c #504F50",
";@	c #3C3B3C",
">@	c #414341",
",@	c #383838",
"'@	c #464546",
")@	c #4A4B4A",
"!@	c #3A3A3A",
"~@	c #363736",
"{@	c #414041",
"]@	c #403F40",
"^@	c #3F3E3F",
"/@	c #3F3F3F",
"(@	c #3C3D3C",
"_@	c #313231",
". . + + + + + + + @ + @ @ @ @ # $ $ $ $ # % & & & * = - ; > > > ",
". . . . . + + + + @ @ , , $ ' ) ! # $ $ # ~ & { ] ^ > > > > > > ",
"/ / / . . . . . $ ( _ : : < [ } | 1 # $ $ 2 3 4 5 > > > > > > > ",
"6 / / / / / / / # 7 8 9 0 a b c d e f # g h i j > > > > > > > > ",
"6 6 6 6 6 + # k f | l m n o p q r s t u v w x y z > > A > > B C ",
"D 6 D / $ < E F ) a l n G H I J H s K L M x N O > P P Q R i S T ",
"D D 6 U f V W X Y Y Z `  ...+.@.#.$.f %.&.*.=.-.;.-.>.,.i '.).!.",
"D D ~./ {.].^.n /.(._.:.o <.[.}.|.1.2.j 3.; y 4.3.5.f 6.7.{.8.9.",
"~.~.~.~.@ : I 0...a.b.9 c.d.: }.e.f.< g.4.-.h.5.f i.j.k.l.g $ 9.",
"m.m.~.~.t n.} o.p.q.[.r.G s.{.a t.|.u.v.w.x.f f {.' $ y.y.z.$ A.",
"m.m.m./ B.E C.:.D.$.E. .e.F.t G.H.e.G I.f J.K.f & # L.M.M.N.O.+ ",
"m.m.m.P.Q.R.S.c F.T.U.c.V.|.W.X.r.Y.V.Z.f `.I.f # @  +y.M..+++/ ",
"@+@+~.{.#+$+<.e.s.t %+c.V.&+1.) *+J =+-+! R.d.f & . / / M./ ;+/ ",
"m.>+,+'+..$+0 e.s.: @._.q )+!+$.7 ~+%+{+F Z.H.'+' . 6 6 / / ]+6 ",
"^+/+(+_ _+R._.e.:+<+I J [+q Z.}+f |+a E |+1+Z.1 & + 6 6 6 6 6 . ",
"2+; 3+<+_+4+Z c X 5+<.9 p.Y $+F e <+6+7 7+H.7+'+# . 6 D D 6 D @ ",
"2+=.8+9+R.a.H 0+4+: 7 E.7+I.a 7+a+7+a #+6+<+b+f $ . D D D D D + ",
"c+3.C d+E n._ e+a a a+_ f+..g+Q.7 h+7 n.i+{.{.& $ / D ~.~.D ~./ ",
"c+j+j+R k+l+e 6+{+{+n.f X.m+n+n+{+_ f k & # # @ . D ~.~.~.~.~.6 ",
"2+%.o+p+5 q+' ( {.s ( t Q.a+a.a E ' & $ $ t / / D ~.m.m.m.~.~.~.",
"r+j+s+t+h.u+U @ @ @ ' E ..V a E ' , @ . 6 ~.~.m.m.m.m.m.m.m.m.~.",
"v+; ;.4.w+x+/ D D 6 . {.n._ n.P., . 6 m.m.y+@+@+m.@+W.z+m.m.m.m.",
"A+; B+5 w+C+m.@+D+D+m.6 $ P.& @ . ~.m.@+D+D+@+D+@+z+z+y+@+m.@+m.",
"3.%.-.E+F+G+D+H+I+I+H+z+D . . / ~.@+J+J+J+D+D+D+D+@+D+@+@+@+m.D+",
"%.x.K+L+M+y+H+N+O+O+I+P+Q+m.m.m.D+J+H+J+J+J+J+D+D+D+@+D+@+@+@+@+",
"R+S+T+U+V+W+X+Y+Z+I+I+I+I+I+H+I+H+H+H+H+H+H+J+J+J+J+D+D+D+D+D+J+",
"`+H+H+ @.@I+I+I+I+I+I+I+I+X+I+I+I+I+I+I+H+H+H+H+J+J+J+J+J+D+D+D+",
"+@H+@@.@I+I+I+I+.@I+I+I+I+I+.@.@I+I+I+I+.@#@J+J+J+J+$@$@J+J+J+%@",
"+@&@&@I+I+*@I+I+I+*@I+I+I+*@I+=@P+*@P+-@.@*@P+J+J+*@J+J+&@&@J+;@",
">@&@&@I+I+*@I+I+I+*@I+I+I+*@I+P+J+*@J+P+I+*@=@W+W+*@J+J+&@&@J+,@",
"+@&@&@#@#@*@#@#@#@*@#@#@#@*@#@'@'@*@'@'@#@*@#@#@)@*@'@'@&@&@J+!@",
"~@&@&@{@{@*@{@]@^@*@{@]@/@*@]@;@;@*@;@;@]@*@]@^@(@*@;@;@&@&@,@_@"};
