/* XPM */
static char * graphChannels_xpm[] = {
"32 32 434 2",
"  	c #60505A",
". 	c #5F505A",
"+ 	c #5F505C",
"@ 	c #5E505C",
"# 	c #5F505D",
"$ 	c #5E505E",
"% 	c #5F505E",
"& 	c #5F505F",
"* 	c #5E4F5F",
"= 	c #5E505F",
"- 	c #5E4F60",
"; 	c #5E5061",
"> 	c #5E4F62",
", 	c #5F505B",
"' 	c #5B4D57",
") 	c #040304",
"! 	c #000000",
"~ 	c #5E5060",
"{ 	c #5E4F61",
"] 	c #5D4F62",
"^ 	c #5F4F5C",
"/ 	c #D2D2D2",
"( 	c #D8D8D8",
"_ 	c #D7D7D7",
": 	c #D4D4D4",
"< 	c #5E4F63",
"[ 	c #5D4F63",
"} 	c #5E4F64",
"| 	c #5D4F64",
"1 	c #5E505D",
"2 	c #5D5D5D",
"3 	c #9A9A9A",
"4 	c #A3A3A3",
"5 	c #9D9D9D",
"6 	c #BBBBBB",
"7 	c #D0D0D0",
"8 	c #EBC9A6",
"9 	c #8B755F",
"0 	c #F1CBA5",
"a 	c #5D4E65",
"b 	c #8E8E8E",
"c 	c #A7A7A7",
"d 	c #C7C7C7",
"e 	c #727272",
"f 	c #EBCBAB",
"g 	c #AE967D",
"h 	c #EFCCA9",
"i 	c #5D4E64",
"j 	c #5D4F65",
"k 	c #5D4E66",
"l 	c #161616",
"m 	c #5D5163",
"n 	c #5B595D",
"o 	c #5B5B5D",
"p 	c #5B5A5D",
"q 	c #5B5A5E",
"r 	c #5B595F",
"s 	c #5C5065",
"t 	c #5C4E66",
"u 	c #2E2E2E",
"v 	c #6C6C6C",
"w 	c #282828",
"x 	c #DFBF9E",
"y 	c #9D846B",
"z 	c #D9B794",
"A 	c #B79D82",
"B 	c #5D5063",
"C 	c #5A6357",
"D 	c #54883E",
"E 	c #558143",
"F 	c #548A3D",
"G 	c #519B31",
"H 	c #519E2F",
"I 	c #509E2F",
"J 	c #50A32C",
"K 	c #558045",
"L 	c #558145",
"M 	c #586A54",
"N 	c #5B5265",
"O 	c #E9C7A4",
"P 	c #BDA082",
"Q 	c #D1B08F",
"R 	c #C3A586",
"S 	c #558541",
"T 	c #4DB222",
"U 	c #48D808",
"V 	c #48D40A",
"W 	c #47DC05",
"X 	c #48D30B",
"Y 	c #48D609",
"Z 	c #48D708",
"` 	c #48D50A",
" .	c #4ACB11",
"..	c #4BC416",
"+.	c #529438",
"@.	c #5E4E63",
"#.	c #B6B6B6",
"$.	c #B5B5B5",
"%.	c #B7B7B7",
"&.	c #4ACA12",
"*.	c #4BBF19",
"=.	c #4FA62B",
"-.	c #509E30",
";.	c #52903A",
">.	c #548442",
",.	c #557C48",
"'.	c #538A3F",
").	c #4CBD1B",
"!.	c #48D709",
"~.	c #49CF0F",
"{.	c #868686",
"].	c #B9B9B9",
"^.	c #898989",
"/.	c #ACACAC",
"(.	c #B4B4B4",
"_.	c #E0BF9E",
":.	c #A48A70",
"<.	c #4FA52B",
"[.	c #4EAC26",
"}.	c #529238",
"|.	c #56764C",
"1.	c #5A5B60",
"2.	c #5C4E69",
"3.	c #5C4E6A",
"4.	c #5B5267",
"5.	c #586C55",
"6.	c #558047",
"7.	c #557A4B",
"8.	c #509C33",
"9.	c #878787",
"0.	c #D1D1D1",
"a.	c #8B8B8B",
"b.	c #9C9C9C",
"c.	c #A38A70",
"d.	c #56734F",
"e.	c #5C5068",
"f.	c #5C4E6B",
"g.	c #5C4D6C",
"h.	c #5B4E6C",
"i.	c #5B4D6C",
"j.	c #5B5766",
"k.	c #CECECE",
"l.	c #CFCFCF",
"m.	c #C6C6C6",
"n.	c #5C4E6C",
"o.	c #6B4762",
"p.	c #77415A",
"q.	c #863950",
"r.	c #7B3F57",
"s.	c #5D4D6C",
"t.	c #5C4D6E",
"u.	c #5B4D6D",
"v.	c #5C4E67",
"w.	c #D3D3D3",
"x.	c #A8A8A8",
"y.	c #CACACA",
"z.	c #CFB193",
"A.	c #BB9D80",
"B.	c #5C4D6B",
"C.	c #614B69",
"D.	c #C41B27",
"E.	c #C31D28",
"F.	c #DC1117",
"G.	c #EA0A0E",
"H.	c #E70C10",
"I.	c #B8212F",
"J.	c #843A52",
"K.	c #604B6B",
"L.	c #5B4D6E",
"M.	c #5C4E68",
"N.	c #A9A9A9",
"O.	c #969696",
"P.	c #C8C8C8",
"Q.	c #C1C1C1",
"R.	c #B8B8B8",
"S.	c #823C53",
"T.	c #BD1F2C",
"U.	c #F20609",
"V.	c #F60406",
"W.	c #F50506",
"X.	c #E40D12",
"Y.	c #EC090D",
"Z.	c #FB0203",
"`.	c #E70B11",
" +	c #7B3E59",
".+	c #5B4D70",
"++	c #8D364C",
"@+	c #8F354B",
"#+	c #7A3F59",
"$+	c #74415D",
"%+	c #90344A",
"&+	c #DC1118",
"*+	c #FF0000",
"=+	c #A12C40",
"-+	c #803C56",
";+	c #A8293B",
">+	c #F90304",
",+	c #C51B28",
"'+	c #62496A",
")+	c #171717",
"!+	c #4D4D4D",
"~+	c #050505",
"{+	c #BFA387",
"]+	c #EE080B",
"^+	c #F10709",
"/+	c #E70C11",
"(+	c #E60C11",
"_+	c #FA0204",
":+	c #E20E14",
"<+	c #963248",
"[+	c #604B6C",
"}+	c #63496B",
"|+	c #AF2537",
"1+	c #BE1E2D",
"2+	c #DABA9A",
"3+	c #967E67",
"4+	c #F50507",
"5+	c #FE0000",
"6+	c #F40507",
"7+	c #A7293D",
"8+	c #7B3D5B",
"9+	c #604B6D",
"0+	c #5B4D71",
"a+	c #5A4D71",
"b+	c #5B4C72",
"c+	c #6E4364",
"d+	c #C71A26",
"e+	c #FA0203",
"f+	c #8D8D8D",
"g+	c #BEBEBE",
"h+	c #9F2D42",
"i+	c #963148",
"j+	c #B12436",
"k+	c #B02536",
"l+	c #8A3751",
"m+	c #63486C",
"n+	c #5A4D72",
"o+	c #5A4C72",
"p+	c #5A4C73",
"q+	c #5C4B72",
"r+	c #6F4265",
"s+	c #A8283D",
"t+	c #EE080C",
"u+	c #9F9F9F",
"v+	c #C3C3C3",
"w+	c #C9C9C9",
"x+	c #E4C09C",
"y+	c #5A4D74",
"z+	c #5A4C74",
"A+	c #5F4A70",
"B+	c #95314B",
"C+	c #5B4D6F",
"D+	c #5A4D6F",
"E+	c #7F7F7F",
"F+	c #B1B1B1",
"G+	c #E2C1A0",
"H+	c #8D7760",
"I+	c #5A4D73",
"J+	c #5A4C75",
"K+	c #5A4C76",
"L+	c #CBCBCB",
"M+	c #D6D6D6",
"N+	c #ADADAD",
"O+	c #5A4D76",
"P+	c #594C76",
"Q+	c #594C77",
"R+	c #5A4D75",
"S+	c #594C78",
"T+	c #5A4C78",
"U+	c #5D5174",
"V+	c #594C71",
"W+	c #5E5076",
"X+	c #5C4F76",
"Y+	c #5D5076",
"Z+	c #5E4F75",
"`+	c #5B4D73",
" @	c #615176",
".@	c #625378",
"+@	c #645478",
"@@	c #655578",
"#@	c #635379",
"$@	c #594B78",
"%@	c #594C79",
"&@	c #594C7A",
"*@	c #595177",
"=@	c #5A4C77",
"-@	c #594F79",
";@	c #58517B",
">@	c #594D79",
",@	c #594B79",
"'@	c #594B7A",
")@	c #584C7A",
"!@	c #5C5378",
"~@	c #5493A0",
"{@	c #51A9AC",
"]@	c #549CA5",
"^@	c #52A7AC",
"/@	c #5C6284",
"(@	c #579CA6",
"_@	c #5B7991",
":@	c #5E527A",
"<@	c #5594A1",
"[@	c #577E94",
"}@	c #5E517B",
"|@	c #5B4F79",
"1@	c #575980",
"2@	c #4E9BA5",
"3@	c #4DA6AB",
"4@	c #4DA2A9",
"5@	c #566286",
"6@	c #537993",
"7@	c #4CACAE",
"8@	c #4E9EA7",
"9@	c #527D96",
"0@	c #584B7C",
"a@	c #528094",
"b@	c #4DA4A9",
"c@	c #595079",
"d@	c #4EA0A7",
"e@	c #53768F",
"f@	c #4F97A3",
"g@	c #527F95",
"h@	c #5A5683",
"i@	c #5A5481",
"j@	c #594D7B",
"k@	c #4F92A0",
"l@	c #4F94A1",
"m@	c #594E7C",
"n@	c #584C7B",
"o@	c #594C7B",
"p@	c #4E99A5",
"q@	c #594B7C",
"r@	c #584C7C",
"s@	c #4F98A2",
"t@	c #518899",
"u@	c #5A4B78",
"v@	c #4DA7AB",
"w@	c #4BB1B1",
"x@	c #5B5B8A",
"y@	c #5F77A5",
"z@	c #6699C9",
"A@	c #5D6493",
"B@	c #585883",
"C@	c #4DA4AA",
"D@	c #537390",
"E@	c #584D7C",
"F@	c #565782",
"G@	c #565984",
"H@	c #584E7E",
"I@	c #4BAFB0",
"J@	c #4F95A3",
"K@	c #4F94A3",
"L@	c #565A85",
"M@	c #584B7E",
"N@	c #4F929F",
"O@	c #508F9E",
"P@	c #594D78",
"Q@	c #4E9FA7",
"R@	c #537892",
"S@	c #4F98A4",
"T@	c #527E96",
"U@	c #5D6693",
"V@	c #6185B3",
"W@	c #6396C4",
"X@	c #66A8D6",
"Y@	c #68B4E1",
"Z@	c #6399C6",
"`@	c #595F8C",
" #	c #4DA0A9",
".#	c #527B95",
"+#	c #57507F",
"@#	c #51869B",
"##	c #4BB0B1",
"$#	c #55668B",
"%#	c #527D97",
"&#	c #4E9BA6",
"*#	c #575282",
"=#	c #584C80",
"-#	c #584A7F",
";#	c #556888",
">#	c #4BB3B2",
",#	c #537690",
"'#	c #575E84",
")#	c #556C8B",
"!#	c #575881",
"~#	c #4EA0A8",
"{#	c #537691",
"]#	c #584B7A",
"^#	c #527F96",
"/#	c #584B7B",
"(#	c #5B5D8D",
"_#	c #6080AF",
":#	c #594E80",
"<#	c #584B7D",
"[#	c #527A95",
"}#	c #4CABAF",
"|#	c #546D8F",
"1#	c #55638A",
"2#	c #4CA9AD",
"3#	c #4DA2AA",
"4#	c #54698E",
"5#	c #55628B",
"6#	c #584A80",
"7#	c #566487",
"8#	c #50899C",
"9#	c #50919F",
"0#	c #518399",
"a#	c #585580",
"b#	c #537592",
"c#	c #556087",
"d#	c #537290",
"e#	c #556589",
"f#	c #584D7F",
"g#	c #508B9F",
"h#	c #4F90A1",
"i#	c #51839B",
"j#	c #575585",
"k#	c #55638B",
"l#	c #50829B",
"m#	c #51829B",
"n#	c #527596",
"o#	c #574B80",
"p#	c #584B7F",
"q#	c #574A7F",
"r#	c #584B80",
"s#	c #574A80",
"t#	c #574A81",
"u#	c #584A81",
"v#	c #574B81",
"w#	c #574A82",
"x#	c #584B81",
"y#	c #584B82",
"z#	c #574A83",
"A#	c #564A83",
"    . . + + + + + + + @ # # $ % % $ $ & $ * * = - - - - - ; > > ",
", ' ) ! ! ! ! ! ! ! ! ! ! ! ! ! * * - - ~ - ~ - { { { { > ] ] > ",
"+ ^ ! / ( _ ( ( ( : : : : : : ! ~ - ~ ; ~ > { > ] > < < [ } | [ ",
"1 $ ! 2 3 4 5 6 7 8 9 0 0 9 0 ! { { > > > > > ] [ < | } | | a | ",
"$ = ! b c d e ( ( f g h 9 9 h ! > > > [ [ | | | i | | a j a k k ",
"= - ! l l l l l l : : : : : : ! } | i | m n o o p q q r s k k t ",
"- - ! u v ! w v u x y z A A 0 ! B C D E F G H H I J J I K L M N ",
"{ > ! ! ! ! ! ! ! O P Q R 9 0 ! S T U V W X Y Z ` ` ` `  .Z ..+.",
"] @.! #.#.$.$.%.$.: : : : : : ! X W &.*.=.-.;.>.>.,.,.'.).!.~.W ",
"i | ! {.]./ ^./.(._.:.0 0 9 0 ! <.[.}.|.1.2.2.2.2.3.3.4.5.6.7.8.",
"a j ! v 9.0.a.b.(.0 c.0 A 9 0 ! d.e.2.2.3.3.3.3.3.f.f.f.g.h.i.j.",
"k k ! k.k.( l.m.: : : : : : : ! 3.3.3.3.3.f.f.n.o.p.q.r.o.s.t.u.",
"k v.! ].m.w.( x.y.z.A.0 A 9 0 ! B.f.f.h.g.n.C.D.E.F.G.H.I.J.K.L.",
"M.M.! N.O./ P.Q.R.0 0 9 0 9 0 ! g.n.g.n.u.S.T.U.V.W.X.Y.Z.`. +.+",
"2.3.! ! ! ! ! ! ! : : : : : : ! ++@+#+$+%+&+W.*+`.=+-+;+>+V.,+'+",
"3.f.! )+!+! v v ~+{+Q 0 9 A 0 ! ]+^+/+(+Y._+]+:+<+[+.+}+|+*+>+1+",
"f.f.! ! ! ! ! ! ! 2+3+A 9 0 0 ! 4+Z.5+5+>+6+7+8+9+0+a+b+c+d+e+*+",
"n.g.! 6 6 f+g+6 f+: : : : : : ! h+i+j+k+i+l+m+n+o+o+o+p+q+r+s+t+",
"L.t.! 0.u+v+_ w+: A x+A 9 0 0 ! a+o+n+n+n+n+p+y+p+z+y+z+z+z+A+B+",
"C+D+! E+F+#.6 u+d G+H+0 9 0 0 ! o+I+I+y+p+z+z+z+z+z+J+J+J+J+K+K+",
".+.+! Q.L+M+N+$.y.: : : : : : ! p+z+z+z+z+J+J+J+K+O+K+P+K+Q+Q+Q+",
"a+a+! ! ! ! ! ! ! ! ! ! ! ! ! ! z+R+J+J+P+K+K+P+P+Q+Q+Q+S+T+S+S+",
"n+o+U+V+o+W+X+y+Y+Z+`+ @.@+@@@#@K+K+K+P+K+Q+Q+Q+Q+S+S+S+$@%@%@&@",
"I+p+p+z+R+*@z+J+J+J+K+K+K+J+J+J+Q+=@S+S+S+S+-@;@>@%@,@'@&@&@'@)@",
"z+y+!@~@{@]@^@/@(@_@:@<@[@}@}@|@S+S+S+S+1@2@3@2@4@5@6@7@8@8@9@0@",
"J+K+a@b@c@K+P+=@d@e@S+f@g@S+S+S+h@i@%@j@k@l@m@n@o@n@9@p@q@r@0@0@",
"K+P+s@t@Q+S+u@T+d@v@2@w@g@j@i@x@y@z@A@B@C@D@E@F@G@H@9@I@J@K@L@M@",
"S+Q+N@O@P@S+S+,@Q@R@m@S@T@U@V@W@X@Y@Z@`@ #.#+#@###$#%#&#*#*#=#-#",
"S+S+;#>#,#'#)#!#~#{#]#f@^#/#r@0@(#_#:#<#[#}#|#1#2#$#%#3#4#4#5#6#",
"&@&@]#7#8#9#0#a#b#c#0@d#e#0@0@<#M@M@M@M@f#|#g#h#i#j#k#i#l#m#n#o#",
"]#/#/#/#/#0@0@0@r@<#<#<#M@M@M@M@p#M@M@q#p#r#o#r#s#6#t#u#t#v#t#w#",
"0@0@0@0@0@<#<#M@<#M@M@M@M@-#p#r#r#6#r#6#s#o#x#x#y#w#w#w#w#z#w#A#"};
