/* XPM */
static char * keyScaler_xpm[] = {
"32 32 333 2",
"  	c #7F9A90",
". 	c #7E9A90",
"+ 	c #7F9990",
"@ 	c #7E9990",
"# 	c #7D9990",
"$ 	c #7E998F",
"% 	c #7D988F",
"& 	c #7C988F",
"* 	c #7D988E",
"= 	c #7C988E",
"- 	c #7C978E",
"; 	c #7B978D",
"> 	c #7B968E",
", 	c #7B968D",
"' 	c #7A968D",
") 	c #7A968C",
"! 	c #809B92",
"~ 	c #7F9B91",
"{ 	c #809A91",
"] 	c #7F9A91",
"^ 	c #7F9991",
"/ 	c #7D998F",
"( 	c #7D978F",
"_ 	c #7B978E",
": 	c #7B968C",
"< 	c #819B92",
"[ 	c #7C998F",
"} 	c #7C978F",
"| 	c #7B988E",
"1 	c #829C94",
"2 	c #829C93",
"3 	c #819C93",
"4 	c #819B93",
"5 	c #819C92",
"6 	c #809B91",
"7 	c #7E9890",
"8 	c #839D94",
"9 	c #829D94",
"0 	c #839D93",
"a 	c #7E9A91",
"b 	c #849E95",
"c 	c #6D817B",
"d 	c #303A37",
"e 	c #6B8079",
"f 	c #829C92",
"g 	c #303936",
"h 	c #698078",
"i 	c #809A92",
"j 	c #2F3935",
"k 	c #697F77",
"l 	c #849E96",
"m 	c #62766F",
"n 	c #272E2C",
"o 	c #28312E",
"p 	c #839D95",
"q 	c #62756E",
"r 	c #262E2B",
"s 	c #28302D",
"t 	c #60746E",
"u 	c #272F2C",
"v 	c #5F736D",
"w 	c #262D2B",
"x 	c #62756F",
"y 	c #1B201E",
"z 	c #333C39",
"A 	c #738881",
"B 	c #859F96",
"C 	c #859E96",
"D 	c #61756D",
"E 	c #1A201E",
"F 	c #323C39",
"G 	c #71877F",
"H 	c #839E95",
"I 	c #839E94",
"J 	c #839C94",
"K 	c #6F867E",
"L 	c #313B37",
"M 	c #1A1F1E",
"N 	c #5F726C",
"O 	c #6F857C",
"P 	c #313A37",
"Q 	c #1A1F1D",
"R 	c #5F726B",
"S 	c #839C93",
"T 	c #51605B",
"U 	c #1D2321",
"V 	c #404B48",
"W 	c #788F87",
"X 	c #86A097",
"Y 	c #859F97",
"Z 	c #829A92",
"` 	c #50605A",
" .	c #3F4B47",
"..	c #778E86",
"+.	c #859E95",
"@.	c #849D95",
"#.	c #758D85",
"$.	c #3E4A46",
"%.	c #1D2221",
"&.	c #4F5F59",
"*.	c #7F988F",
"=.	c #748B83",
"-.	c #3D4A45",
";.	c #1D2220",
">.	c #4F5E59",
",.	c #7E978E",
"'.	c #88A199",
").	c #88A198",
"!.	c #869F97",
"~.	c #5C6D67",
"{.	c #202624",
"].	c #87A097",
"^.	c #5B6D66",
"/.	c #869E96",
"(.	c #2F3835",
"_.	c #5A6C66",
":.	c #2E3735",
"<.	c #1F2623",
"[.	c #596B65",
"}.	c #89A299",
"|.	c #89A199",
"1.	c #88A299",
"2.	c #677A73",
"3.	c #88A098",
"4.	c #87A198",
"5.	c #667973",
"6.	c #879F97",
"7.	c #85A097",
"8.	c #869F96",
"9.	c #657872",
"0.	c #849E94",
"a.	c #8AA39A",
"b.	c #8AA29A",
"c.	c #89A39A",
"d.	c #89A29A",
"e.	c #87A199",
"f.	c #87A098",
"g.	c #86A096",
"h.	c #849F95",
"i.	c #8BA49B",
"j.	c #8BA39B",
"k.	c #8BA39A",
"l.	c #87A099",
"m.	c #87A197",
"n.	c #8CA49C",
"o.	c #8CA39C",
"p.	c #8BA39C",
"q.	c #8BA49C",
"r.	c #8AA29B",
"s.	c #86A098",
"t.	c #8DA59D",
"u.	c #8DA59C",
"v.	c #8CA49D",
"w.	c #8CA59C",
"x.	c #8AA299",
"y.	c #89A198",
"z.	c #8EA59E",
"A.	c #8EA69D",
"B.	c #8EA59D",
"C.	c #8CA59D",
"D.	c #8CA49B",
"E.	c #8FA79F",
"F.	c #8FA69E",
"G.	c #8FA79E",
"H.	c #8EA69E",
"I.	c #8DA69D",
"J.	c #8DA49D",
"K.	c #8CA59B",
"L.	c #8CA39B",
"M.	c #8AA39B",
"N.	c #8FA89F",
"O.	c #90A7A0",
"P.	c #90A79F",
"Q.	c #8FA69F",
"R.	c #8EA79E",
"S.	c #8DA59E",
"T.	c #91A8A0",
"U.	c #90A8A0",
"V.	c #90A79E",
"W.	c #788C85",
"X.	c #020202",
"Y.	c #8DA49C",
"Z.	c #92A9A1",
"`.	c #91A9A1",
" +	c #92A9A0",
".+	c #90A8A1",
"++	c #90A89F",
"@+	c #798C85",
"#+	c #93AAA2",
"$+	c #92A9A2",
"%+	c #93A9A1",
"&+	c #93AAA1",
"*+	c #798D86",
"=+	c #8DA69E",
"-+	c #3C4542",
";+	c #191D1B",
">+	c #1A1D1C",
",+	c #38413E",
"'+	c #72847E",
")+	c #1A1E1C",
"!+	c #2D3432",
"~+	c #859A93",
"{+	c #222826",
"]+	c #1A1E1D",
"^+	c #131715",
"/+	c #4A5652",
"(+	c #92A8A0",
"_+	c #7A8E87",
":+	c #91A89F",
"<+	c #7C8F89",
"[+	c #252B29",
"}+	c #1C211F",
"|+	c #6D7F79",
"1+	c #3C4743",
"2+	c #3C4643",
"3+	c #82958F",
"4+	c #000000",
"5+	c #8DA29B",
"6+	c #95ABA3",
"7+	c #93A8A1",
"8+	c #94ABA3",
"9+	c #131514",
"0+	c #5F6D68",
"a+	c #92A8A1",
"b+	c #8FA59E",
"c+	c #8A9F98",
"d+	c #768881",
"e+	c #070808",
"f+	c #7B8E88",
"g+	c #91A9A0",
"h+	c #232826",
"i+	c #667670",
"j+	c #667771",
"k+	c #191E1C",
"l+	c #606F6A",
"m+	c #91A8A1",
"n+	c #1B1F1E",
"o+	c #54615D",
"p+	c #8DA39B",
"q+	c #95ABA4",
"r+	c #839891",
"s+	c #91A69F",
"t+	c #6F807B",
"u+	c #272D2B",
"v+	c #1B1F1D",
"w+	c #040504",
"x+	c #010101",
"y+	c #1D2120",
"z+	c #1F2423",
"A+	c #131615",
"B+	c #97ADA5",
"C+	c #92A7A0",
"D+	c #65736F",
"E+	c #242927",
"F+	c #222726",
"G+	c #96ACA5",
"H+	c #849892",
"I+	c #91A79F",
"J+	c #96ABA4",
"K+	c #8EA39B",
"L+	c #73857F",
"M+	c #7E9089",
"N+	c #94AAA3",
"O+	c #7D9089",
"P+	c #94AAA2",
"Q+	c #020303",
"R+	c #7D908A",
"S+	c #93A9A2",
"T+	c #8EA19B",
"U+	c #98ADA5",
"V+	c #758680",
"W+	c #0B0C0C",
"X+	c #616F69",
"Y+	c #839690",
"Z+	c #6A7A75",
"`+	c #2E3532",
" @	c #3B4441",
".@	c #8BA199",
"+@	c #889C95",
"@@	c #1D211F",
"#@	c #181B1A",
"$@	c #5F6D69",
"%@	c #98AEA7",
"&@	c #74857F",
"*@	c #161918",
"=@	c #323A37",
"-@	c #96ACA4",
";@	c #303734",
">@	c #171A19",
",@	c #4A5451",
"'@	c #7E918A",
")@	c #95ACA4",
"!@	c #899D96",
"~@	c #303735",
"{@	c #161A18",
"]@	c #1E2221",
"^@	c #212624",
"/@	c #94ABA4",
"(@	c #93AAA3",
"_@	c #9AAFA8",
":@	c #99AFA7",
"<@	c #99AEA7",
"[@	c #99AEA8",
"}@	c #98AEA6",
"|@	c #98ADA6",
"1@	c #97ADA6",
"2@	c #96ADA5",
"3@	c #97ACA5",
"4@	c #95ACA3",
"5@	c #9BB0A8",
"6@	c #9BB0A9",
"7@	c #9AB0A8",
"8@	c #9AAFA9",
"9@	c #99AFA8",
"0@	c #9AAEA7",
"a@	c #98AFA7",
"b@	c #9CB1A9",
"c@	c #9CB0A9",
"d@	c #9BAFA9",
"e@	c #9AAFA7",
"f@	c #99AEA6",
"g@	c #96ADA6",
"h@	c #9DB1AA",
"i@	c #9CB2AB",
"j@	c #9CB1AA",
"k@	c #9CB0AA",
"l@	c #9BAFA8",
"m@	c #9AAEA8",
"n@	c #98ADA7",
"o@	c #9EB2AB",
"p@	c #9DB2AB",
"q@	c #9DB1A9",
"r@	c #9BB0AA",
"    . . + @ @ @ # $ % % & & * = - - = - ; ; > ; ; , ' ' ) ) ) ) ",
"! ~ { ] { ]   ] @ ^ @ . @ / % $ % / % * = ( - - _ _ - _ ; ' , : ",
"< < < < < ! ! ! { ] ] ] + .   @ @ @ @ / / / % [ & % & } | = - - ",
"1 2 2 3 3 3 4 < 5 ! ! 6 ! ] ~ { ] ] +   @ @ @ @ 7 # $ % [ * = } ",
"8 9 9 9 0 1 9 1 3 5 5 < 3 ! < ! ! { { ! { ] ] ]   a @ . @ @ % $ ",
"b b b 8 c d 8 9 9 1 1 e d 2 2 5 f < g h ! 6 ! i ~ j k ] + ] ] . ",
"l b m n o m b p 8 q r s q 9 9 2 8 2 t u r t { ! 5 v u w v   i ~ ",
"x y z A B B C D E F G b b H p 8 I 8 8 J K L M N 2 5 3 O P Q R 6 ",
"S T U V W X Y Z ` U  ...B B +.b @.H @.#.$.%.&.*.J 0 =.-.;.>.,.3 ",
"'.).!.~.{.g ].].X +.^.{.g B B B /.C (.{._.2 b b p :.<.[.< 9 8 J ",
"}.|.'.1.].2.3.).4.4.4.!.5.X X 6.].7.5.l B 8.B C B 9.I b b H 0.b ",
"a.b.b.c.}.d.d.}.1.'.'.).).e.).4.f.].].].].X g.X X B B B B C B h.",
"i.j.j.k.a.a.b.b.}.}.d.}.1.}.|.).1.).l.).f.3.m.f.].X X X 8.!.8.B ",
"n.n.n.o.p.q.i.k.j.j.a.r.a.d.d.d.d.}.d.}.'.'.).).l.3.m.].].s.].s.",
"t.u.v.w.w.n.n.n.p.i.i.j.j.j.j.a.a.c.d.a.d.x.|.'.|.y.'.).'.).l.).",
"z.A.t.B.t.u.t.C.w.n.w.w.D.o.D.p.i.j.i.a.r.a.b.d.d.d.d.}.}.d.|.'.",
"E.F.G.H.H.z.B.A.I.t.t.t.u.w.J.u.n.K.D.i.L.i.j.M.M.a.k.j.b.b.d.d.",
"N.O.P.P.E.Q.F.R.R.H.H.A.H.B.S.t.B.t.t.J.C.n.n.i.n.n.D.q.j.i.j.r.",
"T.T.T.P.O.U.P.P.P.E.V.Q.F.H.H.H.H.W.X.B.t.t.t.t.J.n.Y.Y.i.n.q.p.",
"Z.`.Z. +`.T..+T.U.U.++N.E.P.P.E.E.@+X.F.H.H.A.z.A.t.I.t.t.Y.Y.n.",
"#+$+%+$+&+Z.`. +`. +T.T.T.++U.++O.*+X.P.P.V.Q.R.Q.H.H.H.A.=+B.B.",
"#+-+;+>+,+#+#+'+)+y !+~+{+]+^+/+(+_+X.T.:+<+[+}+]+|+Q.*+X.1+2+F.",
"3+4+5+6+7+8+#+9+0+#+a+b+c+Z.d+e+Z.f+X.g+Z.h+i+U.j+k+P.*+4+l+E.E.",
"m+)+n+o+p+q+r+4+s+8+8+8+t+u+v+w+#+<+X.$+G.x+y+z+}+A+g+_+x+T.T.U.",
"B+C+D+E+F+G+H+4+I+J+J+K+e+L+M+w+N+O+X.P+s+Q+R+%+S+$+Z.f+X.a+m+T.",
"s+T+U+V+W+B+G+A+X+G+C+Y+4+b+Z+X.a+M+X.6+8+`+ @%+#+.@P+<+X.S+#+%+",
"+@v+@@#@$@%@%@&@*@y+=@-@;@>@,@F+,+'@X.)@q+!@~@{@]@^@/@O+X.P+(@N+",
"_@:@_@<@[@<@:@<@%@<@}@|@}@}@1@B+1@2@B+3@G+G+G+G+)@J+)@q+4@6+8+N+",
"5@6@7@8@_@7@_@9@_@9@0@<@a@a@%@}@}@|@1@}@B+B+1@3@3@G+G+G+G+J+-@6+",
"b@c@c@c@6@6@6@6@d@_@7@_@_@9@9@e@<@:@a@%@f@|@}@}@|@|@1@B+g@3@2@G+",
"h@h@i@j@j@j@j@k@c@6@6@5@7@5@d@l@_@e@e@e@:@m@<@:@<@%@}@n@}@|@1@1@",
"o@o@p@p@p@p@p@h@h@q@j@j@r@b@b@6@6@5@5@7@7@7@_@_@e@<@9@9@:@}@}@}@"};
