/* XPM */
static char * foo_xpm[] = {
"16 16 42 1",
" 	s bg c None",
".	c #CEA222",
"+	c #FFFFFF",
"@	c #C69A19",
"#	c #FFFF9C",
"$	c #FFF39C",
"%	c #FFF38C",
"&	c #9D7B1A",
"*	c #FFEB84",
"=	c #E2C150",
"-	c #B18919",
";	c #FFD784",
">	c #DABF6C",
",	c #FFFBF7",
"'	c #FFE784",
")	c #A17E19",
"!	c #FDD570",
"~	c #F7F089",
"{	c #FFC75B",
"]	c #FBF996",
"^	c #9B7B19",
"/	c #E2B343",
"(	c #C9A021",
"_	c #FFFFA5",
":	c #FFF794",
"<	c #E7BE53",
"[	c #CEBC5C",
"}	c #A5730D",
"|	c #CFA226",
"1	c #D7B840",
"2	c #EFBA43",
"3	c #656565",
"4	c #C69A1A",
"5	c #F0E47A",
"6	c #FFE37C",
"7	c #FFDF7C",
"8	c #DEB243",
"9	c #C79C1C",
"0	c #FFD76C",
"a	c #BF9929",
"b	c #717171",
"c	c #898989",
"                ",
"  ....          ",
" .++++@         ",
"@+####+@@@@@@   ",
"@$%%%%%+++++@&  ",
"@*=@@@@@@@@@@@- ",
"@;@>++,+++++'+) ",
"@!@~########{]^ ",
"@/(_::::::::<[} ",
"@|1#*******'2@3 ",
"@45#666666678&3 ",
"@9#000000000a}b ",
" }}}}}}}}}}}}3c ",
"  cbbbbbbbbbbc  ",
"                ",
"                "};
