/* XPM */
static char * blah_xpm[] = {
"20 20 370 2",
"  	c #170500",
". 	c #221306",
"+ 	c #261D0B",
"@ 	c #2D2510",
"# 	c #1E1207",
"$ 	c #000000",
"% 	c #221208",
"& 	c #7A5D40",
"* 	c #94764E",
"= 	c #93724E",
"- 	c #93724F",
"; 	c #846544",
"> 	c #5E3F28",
", 	c #0E0000",
"' 	c #040000",
") 	c #51371E",
"! 	c #52351B",
"~ 	c #462D15",
"{ 	c #54371E",
"] 	c #54381F",
"^ 	c #221906",
"/ 	c #302A14",
"( 	c #383119",
"_ 	c #362D15",
": 	c #0C0101",
"< 	c #B08D60",
"[ 	c #ECD186",
"} 	c #E4CB85",
"| 	c #DDC381",
"1 	c #DEC583",
"2 	c #E3C786",
"3 	c #CEA97B",
"4 	c #85604B",
"5 	c #110200",
"6 	c #4A2F1A",
"7 	c #50341A",
"8 	c #422810",
"9 	c #5A3921",
"0 	c #69452D",
"a 	c #26240F",
"b 	c #2F2A17",
"c 	c #3C341B",
"d 	c #2A2110",
"e 	c #583C2D",
"f 	c #E5C283",
"g 	c #E2CD81",
"h 	c #DDC681",
"i 	c #E0CB82",
"j 	c #DDC881",
"k 	c #DBC380",
"l 	c #DEC282",
"m 	c #D5AB84",
"n 	c #7F5B4A",
"o 	c #3B2111",
"p 	c #644028",
"q 	c #78513B",
"r 	c #7A553D",
"s 	c #7C573F",
"t 	c #312D1A",
"u 	c #352D1A",
"v 	c #40371C",
"w 	c #171208",
"x 	c #75563F",
"y 	c #E6C781",
"z 	c #DCC57D",
"A 	c #DDC680",
"B 	c #DFCA81",
"C 	c #DEC981",
"D 	c #D9C07F",
"E 	c #D4B57B",
"F 	c #C4A177",
"G 	c #A77E66",
"H 	c #1B0C04",
"I 	c #5D3B26",
"J 	c #8C634C",
"K 	c #7D5941",
"L 	c #6A4A31",
"M 	c #312C17",
"N 	c #3A311B",
"O 	c #40361C",
"P 	c #0A0903",
"Q 	c #74563E",
"R 	c #E4C380",
"S 	c #DBC37B",
"T 	c #DBC47F",
"U 	c #DFC880",
"V 	c #DDC780",
"W 	c #D8BE7E",
"X 	c #D3B47A",
"Y 	c #C19D75",
"Z 	c #A47962",
"` 	c #0E0501",
" .	c #412B1C",
"..	c #836047",
"+.	c #825C43",
"@.	c #6A4931",
"#.	c #2D2913",
"$.	c #39311C",
"%.	c #3D321A",
"&.	c #030000",
"*.	c #432B1E",
"=.	c #C8A070",
"-.	c #DDC57C",
";.	c #DAC37F",
">.	c #E1CA81",
",.	c #EBD58A",
"'.	c #EFD68E",
").	c #DABC7E",
"!.	c #C5A677",
"~.	c #C79978",
"{.	c #161711",
"].	c #241C11",
"^.	c #8F5C42",
"/.	c #88654B",
"(.	c #7D573F",
"_.	c #2F2A16",
":.	c #2B2711",
"<.	c #3E341C",
"[.	c #483323",
"}.	c #C9A172",
"|.	c #DBC27B",
"1.	c #DFC981",
"2.	c #DCC183",
"3.	c #AB8D61",
"4.	c #8F754B",
"5.	c #B49369",
"6.	c #D8B684",
"7.	c #B19370",
"8.	c #3E160F",
"9.	c #5F0100",
"0.	c #920A04",
"a.	c #6F523B",
"b.	c #654A31",
"c.	c #413621",
"d.	c #2E2813",
"e.	c #453927",
"f.	c #AD946D",
"g.	c #2A1D0B",
"h.	c #3B2717",
"i.	c #E7C985",
"j.	c #DDC47D",
"k.	c #D2B47C",
"l.	c #8E6753",
"m.	c #31190F",
"n.	c #30150C",
"o.	c #A98166",
"p.	c #9D7E5E",
"q.	c #1C160E",
"r.	c #7D0700",
"s.	c #7F0702",
"t.	c #73140B",
"u.	c #8D0F07",
"v.	c #3D2813",
"w.	c #473A24",
"x.	c #322715",
"y.	c #756145",
"z.	c #F5D497",
"A.	c #BDA26F",
"B.	c #4C3420",
"C.	c #D1B476",
"D.	c #DFC581",
"E.	c #C5A276",
"F.	c #71533D",
"G.	c #604137",
"H.	c #A37D65",
"I.	c #FAE099",
"J.	c #5F4A2F",
"K.	c #5D3B2E",
"L.	c #C53A29",
"M.	c #6B0000",
"N.	c #5A1F11",
"O.	c #7A0D03",
"P.	c #1D1203",
"Q.	c #2B2A16",
"R.	c #241F0F",
"S.	c #887151",
"T.	c #C3A078",
"U.	c #D2B77D",
"V.	c #C3A272",
"W.	c #C9AB75",
"X.	c #D8BE7D",
"Y.	c #DBBF83",
"Z.	c #B88F71",
"`.	c #CFB27D",
" +	c #F2DE8F",
".+	c #B7A06E",
"++	c #240904",
"@+	c #790000",
"#+	c #920501",
"$+	c #8F0D05",
"%+	c #851208",
"&+	c #423C22",
"*+	c #191000",
"=+	c #171506",
"-+	c #594A37",
";+	c #E7C98C",
">+	c #E4CE85",
",+	c #D5B87E",
"'+	c #CDAF79",
")+	c #D3B87B",
"!+	c #DCC581",
"~+	c #DABF7F",
"{+	c #DABE81",
"]+	c #E0CA84",
"^+	c #DEC483",
"/+	c #ECD38E",
"(+	c #332519",
"_+	c #7B0100",
":+	c #7D1208",
"<+	c #482A16",
"[+	c #372D16",
"}+	c #1D1304",
"|+	c #1D1C0A",
"1+	c #1A1909",
"2+	c #97815D",
"3+	c #EACE8D",
"4+	c #CDB078",
"5+	c #CCAF79",
"6+	c #CFB279",
"7+	c #CEAF7A",
"8+	c #D5B97E",
"9+	c #D8BE7F",
"0+	c #CAAB7A",
"a+	c #CAAE79",
"b+	c #FADA97",
"c+	c #6B543D",
"d+	c #4E3C24",
"e+	c #41361F",
"f+	c #3B351E",
"g+	c #362813",
"h+	c #2E311C",
"i+	c #2E2F19",
"j+	c #21220E",
"k+	c #201E0C",
"l+	c #463627",
"m+	c #BD9F74",
"n+	c #D4B57E",
"o+	c #C5A576",
"p+	c #C8A876",
"q+	c #D6BD7F",
"r+	c #D6BC80",
"s+	c #D7BA81",
"t+	c #A5875E",
"u+	c #6C4F3C",
"v+	c #050404",
"w+	c #2C1F15",
"x+	c #74583C",
"y+	c #4A3620",
"z+	c #553C27",
"A+	c #563E28",
"B+	c #342F1B",
"C+	c #2E2B15",
"D+	c #312F17",
"E+	c #292410",
"F+	c #4F3D2C",
"G+	c #B69175",
"H+	c #CBAD7A",
"I+	c #C7A877",
"J+	c #CFB37C",
"K+	c #DAC280",
"L+	c #CAAF74",
"M+	c #BC9B6B",
"N+	c #BC966A",
"O+	c #5E422C",
"P+	c #4F3827",
"Q+	c #61442E",
"R+	c #5F422D",
"S+	c #73533D",
"T+	c #73523C",
"U+	c #0E0701",
"V+	c #130C03",
"W+	c #1B1806",
"X+	c #66543C",
"Y+	c #B38D72",
"Z+	c #A8856A",
"`+	c #D1B57E",
" @	c #D7BC7E",
".@	c #D0B276",
"+@	c #8B674A",
"@@	c #856649",
"#@	c #A6815B",
"$@	c #56402C",
"%@	c #4D3523",
"&@	c #5C412A",
"*@	c #664631",
"=@	c #60422E",
"-@	c #5A3F2A",
";@	c #664E3E",
">@	c #DFBF88",
",@	c #9F7D5F",
"'@	c #A58267",
")@	c #D4B67D",
"!@	c #BA986A",
"~@	c #B7956C",
"{@	c #C6A36F",
"]@	c #5E472F",
"^@	c #040303",
"/@	c #090503",
"(@	c #533B25",
"_@	c #513A23",
":@	c #503823",
"<@	c #543B26",
"[@	c #5A402A",
"}@	c #020000",
"|@	c #977D5E",
"1@	c #E1C389",
"2@	c #D6BD7E",
"3@	c #916F55",
"4@	c #9B785E",
"5@	c #CEAE79",
"6@	c #C8A776",
"7@	c #BE9670",
"8@	c #543B2A",
"9@	c #070200",
"0@	c #1E150D",
"a@	c #523C27",
"b@	c #4A3522",
"c@	c #41301E",
"d@	c #40311D",
"e@	c #44331E",
"f@	c #060202",
"g@	c #140708",
"h@	c #DBC087",
"i@	c #D0B67D",
"j@	c #D5BC7F",
"k@	c #D5B97F",
"l@	c #785D44",
"m@	c #72573E",
"n@	c #BB956B",
"o@	c #B58C69",
"p@	c #C09169",
"q@	c #46301B",
"r@	c #140E06",
"s@	c #4D3B26",
"t@	c #4A3624",
"u@	c #523A26",
"v@	c #4E3A24",
"w@	c #443621",
"x@	c #070101",
"y@	c #AD926B",
"z@	c #EBD28E",
"A@	c #D1B97B",
"B@	c #CEB57B",
"C@	c #CFB37D",
"D@	c #CFB180",
"E@	c #664B39",
"F@	c #231209",
"G@	c #27180D",
"H@	c #181007",
"I@	c #160902",
"J@	c #342613",
"K@	c #352614",
"L@	c #3F2C19",
"M@	c #3E2D1A",
"N@	c #322614",
"O@	c #0D0000",
"P@	c #9E8564",
"Q@	c #F4DC98",
"R@	c #D7C583",
"S@	c #D8C383",
"T@	c #D3BB80",
"U@	c #C4A778",
"V@	c #C2A279",
"W@	c #CDA583",
"X@	c #4F3A2F",
"Y@	c #0B0000",
"Z@	c #110000",
"`@	c #1B0E03",
" #	c #2C2712",
".#	c #160800",
"  . + @ # $ % & * = - ; > , ' ) ! ~ { ] ",
"^ / ( _ $ : < [ } | 1 2 3 4 5 6 7 8 9 0 ",
"a b c d $ e f g h i j k l m n o p q r s ",
"t u v w $ x y z A B C D E F G H I J K L ",
"M N O P $ Q R S T U V W X Y Z `  ...+.@.",
"#.$.%.&.$ *.=.-.;.>.,.'.).!.~.{.].^./.(.",
"_.:.<.' $ [.}.|.1.2.3.4.5.6.7.8.9.0.a.b.",
"c.d.e.f.g.h.i.j.k.l.m.n.o.p.q.r.s.t.u.v.",
"w.x.y.z.A.B.C.D.E.F.G.H.I.J.K.L.M.N.O.P.",
"Q.R.S.T.U.V.W.X.B Y.Z.`. +.+++@+#+$+%+&+",
"*+=+-+;+>+,+'+)+!+~+{+]+^+/+(+$ _+:+<+[+",
"}+|+1+2+3+4+5+6+7+8+9+0+a+b+c+$ d+e+f+g+",
"h+i+j+k+l+m+n+o+p+q+r+s+t+u+v+w+x+y+z+A+",
"B+C+D+E+F+G+H+I+J+K+L+M+N+O+$ P+Q+R+S+T+",
"` U+V+W+X+Y+Z+`+ @.@+@@@#@$@$ %@&@*@=@-@",
"$ $ $ $ ;@>@,@'@)@!@~@{@]@^@/@(@_@:@<@[@",
"}@}@$ $ |@1@2@3@4@5@6@7@8@9@0@a@b@c@d@e@",
"&.f@$ g@h@i@j@k@l@m@n@o@p@q@r@s@t@u@v@w@",
"x@$ $ y@z@A@B@C@D@E@F@G@H@$ I@J@K@L@M@N@",
"' O@P@Q@R@S@T@U@V@W@X@$ $ Y@Z@O@`@ #.#Y@"};
