/* XPM */
static char * valve_xpm[] = {
"32 32 877 2",
"  	c #1C0B01",
". 	c #241608",
"+ 	c #2B2310",
"@ 	c #29220F",
"# 	c #28200D",
"$ 	c #2D2712",
"% 	c #2A1D0A",
"& 	c #0A0000",
"* 	c #000000",
"= 	c #150B01",
"- 	c #48321A",
"; 	c #987455",
"> 	c #B9976B",
", 	c #C5A66F",
"' 	c #B08D61",
") 	c #A7835E",
"! 	c #B59367",
"~ 	c #AB8761",
"{ 	c #AE8962",
"] 	c #977153",
"^ 	c #7E583E",
"/ 	c #412810",
"( 	c #0D0000",
"_ 	c #050000",
": 	c #362111",
"< 	c #5B3D21",
"[ 	c #4F3219",
"} 	c #58361C",
"| 	c #492E17",
"1 	c #462C14",
"2 	c #623F26",
"3 	c #634128",
"4 	c #241B08",
"5 	c #2C2410",
"6 	c #362F19",
"7 	c #362E18",
"8 	c #312914",
"9 	c #383117",
"0 	c #1D1407",
"a 	c #533A24",
"b 	c #B28F67",
"c 	c #DCC27D",
"d 	c #DAC279",
"e 	c #DBC37E",
"f 	c #DAC27F",
"g 	c #D9C07E",
"h 	c #D9C17F",
"i 	c #D9BF7F",
"j 	c #DBC180",
"k 	c #D4B67C",
"l 	c #B38A6D",
"m 	c #976D57",
"n 	c #4B3220",
"o 	c #261509",
"p 	c #634328",
"q 	c #492F17",
"r 	c #482E16",
"s 	c #3F2811",
"t 	c #40270F",
"u 	c #634027",
"v 	c #6F4B33",
"w 	c #221B08",
"x 	c #2C2712",
"y 	c #352E18",
"z 	c #362E17",
"A 	c #393019",
"B 	c #332A13",
"C 	c #030000",
"D 	c #140802",
"E 	c #A3795A",
"F 	c #DBBE7F",
"G 	c #DDC779",
"H 	c #D9C17C",
"I 	c #DAC381",
"J 	c #DCC681",
"K 	c #DCC580",
"L 	c #DCC581",
"M 	c #DAC480",
"N 	c #D9C280",
"O 	c #DEC480",
"P 	c #D5B87C",
"Q 	c #BC9575",
"R 	c #B98A71",
"S 	c #513627",
"T 	c #0E0000",
"U 	c #6D492F",
"V 	c #52351D",
"W 	c #432B13",
"X 	c #56361D",
"Y 	c #5E3C24",
"Z 	c #583921",
"` 	c #5F3C25",
" .	c #23220C",
"..	c #2E2A16",
"+.	c #322B19",
"@.	c #302A15",
"#.	c #41371D",
"$.	c #261C0C",
"%.	c #553C28",
"&.	c #B48A69",
"*.	c #D8BF79",
"=.	c #DAC37A",
"-.	c #DAC280",
";.	c #DCC57F",
">.	c #DCC680",
",.	c #DEC881",
"'.	c #DDC780",
").	c #D7BE7E",
"!.	c #D7BB7E",
"~.	c #DABD7E",
"{.	c #C9AA76",
"].	c #B3896F",
"^.	c #B2856C",
"/.	c #2D190D",
"(.	c #553621",
"_.	c #69432C",
":.	c #5E3B24",
"<.	c #7E5440",
"[.	c #865E47",
"}.	c #7A563D",
"|.	c #7E5940",
"1.	c #302C19",
"2.	c #312A19",
"3.	c #332B1A",
"4.	c #3D341A",
"5.	c #170F07",
"6.	c #61432E",
"7.	c #BB936D",
"8.	c #D9C179",
"9.	c #D9C17A",
"0.	c #DEC880",
"a.	c #DCC67F",
"b.	c #D7B87D",
"c.	c #D4B57B",
"d.	c #C6A676",
"e.	c #B08B6B",
"f.	c #BF9176",
"g.	c #533929",
"h.	c #100100",
"i.	c #68422A",
"j.	c #714A35",
"k.	c #87604A",
"l.	c #886348",
"m.	c #7E5A42",
"n.	c #825C44",
"o.	c #332C1A",
"p.	c #342C1A",
"q.	c #39301A",
"r.	c #3D331B",
"s.	c #383017",
"t.	c #090501",
"u.	c #674936",
"v.	c #CEA976",
"w.	c #DBC179",
"x.	c #D8C078",
"y.	c #D8C07E",
"z.	c #DDC881",
"A.	c #DEC981",
"B.	c #D8C07F",
"C.	c #D1B27A",
"D.	c #C2A374",
"E.	c #B6936F",
"F.	c #B58970",
"G.	c #745441",
"H.	c #4D301A",
"I.	c #77513A",
"J.	c #825B44",
"K.	c #805A43",
"L.	c #694932",
"M.	c #674730",
"N.	c #2E2B15",
"O.	c #362E19",
"P.	c #3D331C",
"Q.	c #3F341C",
"R.	c #352D16",
"S.	c #030100",
"T.	c #6E4F3A",
"U.	c #D2AD78",
"V.	c #D6BC77",
"W.	c #D7BD77",
"X.	c #D7BF7D",
"Y.	c #DEC87F",
"Z.	c #DDC77F",
"`.	c #DFC980",
" +	c #D7BD7E",
".+	c #D4B77B",
"++	c #CFAF78",
"@+	c #C6A675",
"#+	c #B18A6B",
"$+	c #AB8069",
"%+	c #74543D",
"&+	c #2B190C",
"*+	c #785339",
"=+	c #744D3A",
"-+	c #7F5941",
";+	c #815C43",
">+	c #724F37",
",+	c #312C17",
"'+	c #342D19",
")+	c #392F1B",
"!+	c #3E351C",
"~+	c #2B2410",
"{+	c #63452F",
"]+	c #B98F6A",
"^+	c #D1B677",
"/+	c #DAC278",
"(+	c #D6BE7B",
"_+	c #DEC67F",
":+	c #DDC57E",
"<+	c #DBC37F",
"[+	c #D8BF7F",
"}+	c #D5B77B",
"|+	c #D1B179",
"1+	c #C9AA77",
"2+	c #B48F6E",
"3+	c #825E46",
"4+	c #1C110A",
"5+	c #825A41",
"6+	c #77513C",
"7+	c #7F5940",
"8+	c #886248",
"9+	c #855E45",
"0+	c #332C18",
"a+	c #372F1A",
"b+	c #3F351C",
"c+	c #2A2010",
"d+	c #3A2511",
"e+	c #9F7756",
"f+	c #CCAB75",
"g+	c #D8BF78",
"h+	c #D8C07B",
"i+	c #DDC581",
"j+	c #DBC480",
"k+	c #D8BD7E",
"l+	c #D3B479",
"m+	c #BD9D73",
"n+	c #B88F73",
"o+	c #916952",
"p+	c #0E0502",
"q+	c #75573E",
"r+	c #755C44",
"s+	c #805D44",
"t+	c #825B43",
"u+	c #7F5A42",
"v+	c #2B2911",
"w+	c #2F2A14",
"x+	c #463920",
"y+	c #2F2412",
"z+	c #060201",
"A+	c #1F1108",
"B+	c #9E7357",
"C+	c #B48D68",
"D+	c #D6BB77",
"E+	c #DAC27B",
"F+	c #D7BF7F",
"G+	c #DDC680",
"H+	c #E3CD83",
"I+	c #E2CB85",
"J+	c #E8CD8A",
"K+	c #E9CF8B",
"L+	c #E1C685",
"M+	c #D2B37A",
"N+	c #C3A374",
"O+	c #C7AA78",
"P+	c #C6A27B",
"Q+	c #BC8D6F",
"R+	c #0C120A",
"S+	c #7E321A",
"T+	c #9D0F07",
"U+	c #814E39",
"V+	c #80644B",
"W+	c #78513B",
"X+	c #332D18",
"Y+	c #26230E",
"Z+	c #38311A",
"`+	c #382E1A",
" @	c #47311D",
".@	c #B28A65",
"+@	c #C7A772",
"@@	c #D9C17B",
"#@	c #DAC27E",
"$@	c #C4A673",
"%@	c #AA8664",
"&@	c #78573D",
"*@	c #634A2F",
"=@	c #927151",
"-@	c #B5906D",
";@	c #C4A576",
">@	c #CEAA7D",
",@	c #C19978",
"'@	c #604B37",
")@	c #530701",
"!@	c #720000",
"~@	c #871206",
"{@	c #960000",
"]@	c #661710",
"^@	c #695E42",
"/@	c #62452E",
"(@	c #3E341F",
"_@	c #3A311C",
":@	c #2F2915",
"<@	c #2A2312",
"[@	c #836F53",
"}@	c #9A8660",
"|@	c #170C02",
"1@	c #0F0500",
"2@	c #331F14",
"3@	c #DEC57E",
"4@	c #D2B676",
"5@	c #D5BC7B",
"6@	c #C5A476",
"7@	c #A97C69",
"8@	c #7B5540",
"9@	c #130400",
"0@	c #2D1605",
"a@	c #51311F",
"b@	c #8D6757",
"c@	c #D3AE82",
"d@	c #926E54",
"e@	c #20110A",
"f@	c #AA0000",
"g@	c #A40804",
"h@	c #5D1309",
"i@	c #761B11",
"j@	c #7A1408",
"k@	c #8B160B",
"l@	c #563921",
"m@	c #433720",
"n@	c #423620",
"o@	c #312B17",
"p@	c #423523",
"q@	c #9B7963",
"r@	c #E9CC91",
"s@	c #CEB379",
"t@	c #160900",
"u@	c #080000",
"v@	c #C0A16D",
"w@	c #DFC57F",
"x@	c #D2B777",
"y@	c #D7BD7D",
"z@	c #CDAE7A",
"A@	c #9F785D",
"B@	c #634431",
"C@	c #3F2A1B",
"D@	c #533C29",
"E@	c #6D4C3A",
"F@	c #9A7161",
"G@	c #CCAB7C",
"H@	c #CDAC7A",
"I@	c #341A12",
"J@	c #80583E",
"K@	c #9B1608",
"L@	c #510000",
"M@	c #580603",
"N@	c #692F1D",
"O@	c #A21309",
"P@	c #481B0B",
"Q@	c #493B24",
"R@	c #443721",
"S@	c #312815",
"T@	c #5C4B36",
"U@	c #D9BC87",
"V@	c #E0C983",
"W@	c #F1D792",
"X@	c #AA8E63",
"Y@	c #1F0D00",
"Z@	c #AB8B5F",
"`@	c #DEC27E",
" #	c #D4BA7A",
".#	c #BE9A71",
"+#	c #9C755C",
"@#	c #5D462D",
"##	c #4E372A",
"$#	c #9C755D",
"%#	c #8D6856",
"&#	c #CFB07F",
"*#	c #EFD88D",
"=#	c #C4AC75",
"-#	c #825E48",
";#	c #BC9679",
">#	c #A41006",
",#	c #7F0000",
"'#	c #7A190F",
")#	c #2D1D0F",
"!#	c #6A1D0D",
"~#	c #760A03",
"{#	c #1A1806",
"]#	c #3A321E",
"^#	c #372E1B",
"/#	c #302514",
"(#	c #766446",
"_#	c #D3B481",
":#	c #9C7860",
"<#	c #A58667",
"[#	c #E4C987",
"}#	c #816146",
"|#	c #AB8B63",
"1#	c #DABE7C",
"2#	c #D5B97B",
"3#	c #D5BB7C",
"4#	c #D5BC7D",
"5#	c #DBC181",
"6#	c #CDA97D",
"7#	c #B38970",
"8#	c #986E5F",
"9#	c #B0896D",
"0#	c #E0C884",
"a#	c #DEC882",
"b#	c #E9CE8C",
"c#	c #4F3224",
"d#	c #331D0E",
"e#	c #9C3825",
"f#	c #C40000",
"g#	c #870300",
"h#	c #7B0903",
"i#	c #581409",
"j#	c #8B1508",
"k#	c #7A180A",
"l#	c #32321A",
"m#	c #242611",
"n#	c #2C2A16",
"o#	c #261F11",
"p#	c #705F43",
"q#	c #C39E79",
"r#	c #AF8F6A",
"s#	c #C7AD76",
"t#	c #C9A87A",
"u#	c #CAA978",
"v#	c #D3B77C",
"w#	c #D5BA7B",
"x#	c #E0CB81",
"y#	c #D7BD7F",
"z#	c #C19F73",
"A#	c #B8966F",
"B#	c #D9C081",
"C#	c #EDD18C",
"D#	c #AC8F68",
"E#	c #310000",
"F#	c #770000",
"G#	c #7A0703",
"H#	c #8E0F06",
"I#	c #7D2816",
"J#	c #BE0000",
"K#	c #920804",
"L#	c #4E4429",
"M#	c #1E1805",
"N#	c #24210E",
"O#	c #2A2516",
"P#	c #46392A",
"Q#	c #C4A57A",
"R#	c #DFC982",
"S#	c #D8C17F",
"T#	c #D0B279",
"U#	c #CBAB78",
"V#	c #CEB279",
"W#	c #D3B67A",
"X#	c #DBC580",
"Y#	c #DAC37F",
"Z#	c #D8BD7F",
"`#	c #D2B37B",
" $	c #DABF81",
".$	c #DFCC84",
"+$	c #D6BC7F",
"@$	c #E3CB86",
"#$	c #D6B980",
"$$	c #150906",
"%$	c #670500",
"&$	c #D20000",
"*$	c #7D0602",
"=$	c #5C1B0B",
"-$	c #552412",
";$	c #3C3118",
">$	c #1B0B00",
",$	c #1D1606",
"'$	c #2D2E1A",
")$	c #292213",
"!$	c #9D8261",
"~$	c #DFC288",
"{$	c #D1B97B",
"]$	c #D1B77B",
"^$	c #CDB079",
"/$	c #CCAF78",
"($	c #CEB37A",
"_$	c #CEB177",
":$	c #D3B67B",
"<$	c #D7BC7F",
"[$	c #D7BB7F",
"}$	c #D5B77C",
"|$	c #D6BA7F",
"1$	c #D9BE80",
"2$	c #D4B87E",
"3$	c #D4B87D",
"4$	c #DBC483",
"5$	c #E8CC8B",
"6$	c #3B291D",
"7$	c #3A2114",
"8$	c #0D1009",
"9$	c #2C1707",
"0$	c #820D04",
"a$	c #481F0F",
"b$	c #2D361D",
"c$	c #37341D",
"d$	c #382914",
"e$	c #1B0F01",
"f$	c #201A0A",
"g$	c #20220E",
"h$	c #1D1D0A",
"i$	c #3F3222",
"j$	c #C3A67B",
"k$	c #F2D892",
"l$	c #CAAB75",
"m$	c #CAAC78",
"n$	c #CEB27A",
"o$	c #D0B47B",
"p$	c #D0B37A",
"q$	c #CEAF79",
"r$	c #D1B37C",
"s$	c #D6BB7F",
"t$	c #D7BC7E",
"u$	c #CBAC79",
"v$	c #CEB17B",
"w$	c #E7CB89",
"x$	c #E5CA89",
"y$	c #F8DC95",
"z$	c #876A50",
"A$	c #140906",
"B$	c #503E28",
"C$	c #363B23",
"D$	c #3F351E",
"E$	c #4C341F",
"F$	c #46331F",
"G$	c #44311D",
"H$	c #282B15",
"I$	c #2B2D18",
"J$	c #262412",
"K$	c #22220F",
"L$	c #171905",
"M$	c #473E29",
"N$	c #99825D",
"O$	c #9B845B",
"P$	c #C9AB79",
"Q$	c #CAAA78",
"R$	c #CAAB77",
"S$	c #CEB079",
"T$	c #C8A877",
"U$	c #C7A775",
"V$	c #CEB07B",
"W$	c #D5BB7E",
"X$	c #D8BE7F",
"Y$	c #CCAE79",
"Z$	c #BA9873",
"`$	c #C3A178",
" %	c #907452",
".%	c #8D7053",
"+%	c #DAB284",
"@%	c #674D38",
"#%	c #312318",
"$%	c #79583C",
"%%	c #664831",
"&%	c #523822",
"*%	c #46311C",
"=%	c #4A351F",
"-%	c #46331D",
";%	c #2D2F1A",
">%	c #2D2D18",
",%	c #31301A",
"'%	c #2C2B16",
")%	c #2A2B13",
"!%	c #262510",
"~%	c #1C0D10",
"{%	c #CDAE81",
"]%	c #CDB07A",
"^%	c #C9AB77",
"/%	c #C7A977",
"(%	c #C3A375",
"_%	c #D2B67C",
":%	c #D6BE7E",
"<%	c #D5BB7F",
"[%	c #C6A778",
"}%	c #DCC383",
"|%	c #CDB278",
"1%	c #7E6344",
"2%	c #6C4C38",
"3%	c #150807",
"4%	c #59412C",
"5%	c #715339",
"6%	c #5B402B",
"7%	c #4A331D",
"8%	c #48331E",
"9%	c #5D412C",
"0%	c #5F422D",
"a%	c #3B3321",
"b%	c #2E2B18",
"c%	c #242711",
"d%	c #322F19",
"e%	c #332B19",
"f%	c #352C19",
"g%	c #3A301C",
"h%	c #9B7D61",
"i%	c #B69274",
"j%	c #C2A578",
"k%	c #CBAE79",
"l%	c #C2A375",
"m%	c #C2A276",
"n%	c #CEB17A",
"o%	c #D4B87F",
"p%	c #D6BD80",
"q%	c #DCC37E",
"r%	c #D1B776",
"s%	c #CCAF74",
"t%	c #D9B77C",
"u%	c #A77D5A",
"v%	c #2D1F12",
"w%	c #130C08",
"x%	c #664833",
"y%	c #583E29",
"z%	c #563B28",
"A%	c #5B3F2B",
"B%	c #634630",
"C%	c #7B5A45",
"D%	c #7F5B45",
"E%	c #302C17",
"F%	c #211C08",
"G%	c #2B2A13",
"H%	c #33311B",
"I%	c #3A311D",
"J%	c #392D1A",
"K%	c #977C5F",
"L%	c #AD866E",
"M%	c #B08D6F",
"N%	c #CAAE7A",
"O%	c #C8AA77",
"P%	c #CBAD79",
"Q%	c #D0B57D",
"R%	c #D2B87E",
"S%	c #D8BF7C",
"T%	c #C7AA6F",
"U%	c #A37C5C",
"V%	c #9D735B",
"W%	c #9E795C",
"X%	c #8D684F",
"Y%	c #95704F",
"Z%	c #694C30",
"`%	c #1C120E",
" &	c #684933",
".&	c #523923",
"+&	c #5E412D",
"@&	c #6A4C33",
"#&	c #644630",
"$&	c #6B4D37",
"%&	c #6C4C37",
"&&	c #0C0200",
"*&	c #0E0500",
"=&	c #0C0100",
"-&	c #170C03",
";&	c #201907",
">&	c #2E2B14",
",&	c #92765C",
"'&	c #BB9874",
")&	c #936C5D",
"!&	c #BA9A74",
"~&	c #C6AA78",
"{&	c #CEB27B",
"]&	c #D2B77D",
"^&	c #D2B678",
"/&	c #90684E",
"(&	c #63412F",
"_&	c #795D41",
":&	c #775E3D",
"<&	c #836444",
"[&	c #5E4530",
"}&	c #030201",
"|&	c #23160F",
"1&	c #63452D",
"2&	c #543C27",
"3&	c #583D2A",
"4&	c #664631",
"5&	c #5F412D",
"6&	c #553926",
"7&	c #593E29",
"8&	c #2C2213",
"9&	c #A6836B",
"0&	c #D0B47F",
"a&	c #A28162",
"b&	c #916A5B",
"c&	c #BD9E76",
"d&	c #CCAF7A",
"e&	c #CEB07A",
"f&	c #CBAD72",
"g&	c #C5A56F",
"h&	c #A78162",
"i&	c #B49866",
"j&	c #BCA06A",
"k&	c #CEAD79",
"l&	c #BF9A6D",
"m&	c #946E4F",
"n&	c #352519",
"o&	c #352417",
"p&	c #553E26",
"q&	c #523A24",
"r&	c #513A23",
"s&	c #5B3E2A",
"t&	c #5D402B",
"u&	c #5A3E2A",
"v&	c #624530",
"w&	c #020000",
"x&	c #261713",
"y&	c #BA9677",
"z&	c #CAAD7A",
"A&	c #D9C07F",
"B&	c #947157",
"C&	c #8A6455",
"D&	c #BF9E78",
"E&	c #C9AC79",
"F&	c #C1A36E",
"G&	c #B39168",
"H&	c #B08B69",
"I&	c #CDAD76",
"J&	c #C6A174",
"K&	c #845E42",
"L&	c #140900",
"M&	c #483321",
"N&	c #523B25",
"O&	c #533A23",
"P&	c #4B3722",
"Q&	c #4D3721",
"R&	c #4E3720",
"S&	c #4E3A22",
"T&	c #573D27",
"U&	c #010000",
"V&	c #5B4836",
"W&	c #D4B385",
"X&	c #C0A374",
"Y&	c #D9C180",
"Z&	c #D3BA7F",
"`&	c #8E6C51",
" *	c #856051",
".*	c #C09C79",
"+*	c #C5A773",
"@*	c #BC9E6C",
"#*	c #B5936A",
"$*	c #B6936B",
"%*	c #BA926F",
"&*	c #836042",
"**	c #040000",
"=*	c #110A06",
"-*	c #4C3724",
";*	c #483422",
">*	c #4D3722",
",*	c #4A3522",
"'*	c #44311E",
")*	c #463320",
"!*	c #443320",
"~*	c #45331F",
"{*	c #967F5C",
"]*	c #DDBE87",
"^*	c #C1A375",
"/*	c #D2B97D",
"(*	c #D2B77F",
"_*	c #8B6D4E",
":*	c #6F4F41",
"<*	c #BD9873",
"[*	c #C9A975",
"}*	c #CAAF73",
"|*	c #B9986B",
"1*	c #B9986E",
"2*	c #B8926D",
"3*	c #9F7559",
"4*	c #8A6443",
"5*	c #231608",
"6*	c #0F0906",
"7*	c #4D3A25",
"8*	c #453221",
"9*	c #493522",
"0*	c #463321",
"a*	c #41301E",
"b*	c #453321",
"c*	c #41321F",
"d*	c #3C2E1A",
"e*	c #070201",
"f*	c #0A0001",
"g*	c #D1B782",
"h*	c #D7BD81",
"i*	c #C5AA78",
"j*	c #D0B77C",
"k*	c #CDB27A",
"l*	c #D0B57C",
"m*	c #D9BC84",
"n*	c #7A6044",
"o*	c #412B1D",
"p*	c #AA8564",
"q*	c #C59E76",
"r*	c #A47D61",
"s*	c #A68062",
"t*	c #B58E6D",
"u*	c #B18665",
"v*	c #87613B",
"w*	c #150B02",
"x*	c #100A06",
"y*	c #463520",
"z*	c #493523",
"A*	c #473322",
"B*	c #4A3622",
"C*	c #4E3723",
"D*	c #463420",
"E*	c #40311E",
"F*	c #050201",
"G*	c #876E55",
"H*	c #EBD291",
"I*	c #D0B87D",
"J*	c #CBB279",
"K*	c #D0B77B",
"L*	c #CDB37B",
"M*	c #CAAE79",
"N*	c #CCB17B",
"O*	c #D8B886",
"P*	c #674E39",
"Q*	c #6E4F37",
"R*	c #956F4E",
"S*	c #725134",
"T*	c #735337",
"U*	c #614528",
"V*	c #1C1105",
"W*	c #1C1205",
"X*	c #362B16",
"Y*	c #473522",
"Z*	c #43311E",
"`*	c #473421",
" =	c #5A3F2A",
".=	c #5C4029",
"+=	c #523E26",
"@=	c #493924",
"#=	c #060000",
"$=	c #6F5846",
"%=	c #E5CA91",
"&=	c #D9C282",
"*=	c #D4BD7F",
"==	c #D3BA7D",
"-=	c #D0B77D",
";=	c #C8AD79",
">=	c #C3A676",
",=	c #C9AC7A",
"'=	c #D2AF84",
")=	c #7E5F4A",
"!=	c #070100",
"~=	c #070000",
"{=	c #190500",
"]=	c #201305",
"^=	c #322613",
"/=	c #2E220F",
"(=	c #281D0C",
"_=	c #302311",
":=	c #362916",
"<=	c #322714",
"[=	c #2D210F",
"}=	c #0B0000",
"|=	c #654F40",
"1=	c #E3C692",
"2=	c #DCC685",
"3=	c #D4BF81",
"4=	c #D6C182",
"5=	c #D7C181",
"6=	c #D5BD7F",
"7=	c #D1B87F",
"8=	c #C8AB7A",
"9=	c #C0A276",
"0=	c #C2A376",
"a=	c #B89872",
"b=	c #CDA483",
"c=	c #84644E",
"d=	c #0F0000",
"e=	c #140500",
"f=	c #170800",
"g=	c #221908",
"h=	c #251E0D",
"i=	c #211A08",
"j=	c #110100",
"  . + @ # $ % & * = - ; > , ' ) ! ~ { ] ^ / ( _ : < [ } | 1 2 3 ",
"4 5 6 7 8 9 0 * * a b c d e f g h i j k l m n * o p q r s t u v ",
"w x y z A B C * D E F G H I J K L M N O P Q R S T U V W X Y Z ` ",
" ...+.@.#.$.* * %.&.*.=.-.;.>.,.'.f ).!.~.{.].^./.(._.:.<.[.}.|.",
"1.2.3.y 4.5.* * 6.7.8.9.f ;.0.0.0.a.h b.c.d.e.f.g.h.i.j.k.l.m.n.",
"o.p.q.r.s.t.* * u.v.w.x.y.;.0.z.A.'.B.P C.D.E.F.G.* H.I.J.K.L.M.",
"N.O.P.Q.R.S.* * T.U.V.W.X.e Y.Z.`.f  +.+++@+#+$+%+* &+*+=+-+;+>+",
",+'+)+!+~+* * * {+]+^+/+(+f _+;.:+<+[+}+|+1+2+$+3+* 4+5+6+7+8+9+",
"0+)+a+b+c+* * * d+e+f+g+h+y.;.<+<+i+j+k+l+1+m+n+o+* p+q+r+s+t+u+",
"v+w+y x+y+* z+* A+B+C+D+E+F+G+H+I+J+K+L+M+N+O+P+Q+R+* S+T+U+V+W+",
"X+Y+Y+Z+`+* * *  @.@+@V.@@K #@$@%@&@*@=@-@;@>@,@'@)@!@~@{@]@^@/@",
"(@_@:@<@[@}@|@1@2@++3@4@H 5@6@7@8@9@0@a@b@c@d@e@* f@g@h@i@j@k@l@",
"m@n@o@p@q@r@s@t@u@v@w@x@y@z@A@B@C@D@E@F@G@H@u@I@J@K@L@M@N@O@f@P@",
"Q@R@S@T@U@V@W@X@Y@Z@`@ #!..#+#@###$#%#&#*#=#( -#;#>#,#'#)#!#~#{#",
"]#^#/#(#_#:#<#[#}#|#1#2#3#4#5#6#7#8#9#0#a#b#c#d#e#f#g#h#i#j#k#l#",
"m#n#o#p#q#r#s#j+t#u#v#w#y.0.x#y#z#A#B#j+y.C#D#* E#F#G#H#I#J#K#L#",
"M#N#O#P#Q#I+R#S#T#U#V#W#y@X#Y#Z#`# $.$ ++$@$#$$$& * %$&$*$=$-$;$",
">$,$'$)$!$~${$]$^$/$($_$:$<$[$}$|$1$-.2$3$4$5$6$7$8$9$0$a$b$c$d$",
"e$f$g$h$i$j$k$[#l$m$n$o$p$q$r$s$Z#t$u$v$w$x$y$z$* A$B$C$D$E$F$G$",
"H$I$J$K$L$M$N$O$P$Q$R$S$T$U$V$W$X$Y$Z$`$ %.%+%@%* #%$%%%&%*%=%-%",
";%>%,%'%)%!%* ~%{%]%^%/%(%1+_%:%<%[%}%|%1%2%3%* * 4%5%6%7%8%9%0%",
"a%b%c%d%e%f%g%h%i%j%k%l%m%n%o%p%N q%r%s%t%u%v%* w%x%y%z%A%B%C%D%",
"E%N.F%G%H%I%J%K%L%M%N%O%P%Q%R%S%T%U%V%W%X%Y%Z%* `% &.&+&@&#&$&%&",
"&&*&=&-&;&>&0+,&'&)&!&~&{&]&^&^&/&(&_&:&<&[&}&* |&1&2&3&4&5&6&7&",
"C * * * * _ 8&9&0&a&b&c&d&e&f&g&h&i&j&k&l&m&n&* o&p&q&r&s&t&u&v&",
"C w&w&* * * x&y&z&A&B&C&D&E&F&G&H&I&J&K&L&* * w&M&N&O&P&Q&R&S&T&",
"w&w&U&w&S.* V&W&X&Y&Z&`& *.*+*@*#*$*%*&**** * =*-*;*>*,*'*)*!*~*",
"w&**U&w&w&* {*]*^*/*<%(*_*:*<*[*}*|*1*2*3*4*5*6*7*8*9*0*a*b*c*d*",
"C _ _ e** f*g*h*i*j*k*l*m*n*o*p*q*r*s*t*u*v*w*x*y*z*A*b*B*C*D*E*",
"_ C F** * G*H*I*J*K*L*M*N*O*P*9@Q*R*S*T*U*V** W*X*Y*Z*`* =.=+=@=",
"#=#=U&* $=%=&=*===/*-=;=>=,='=)=U&#=!=* * * ~={=]=^=/=(=_=:=<=[=",
"& }=**|=1=2=3=4=5=6=7=8=9=0=a=b=c=* * * * u@& }=d=e=f=g=h=i=j=}="};
