/* XPM */
static char * out_vsSkinner_xpm[] = {
"20 20 6 1",
" 	s bg c None",
".	c #000000",
"+	c #00A500",
"@	c #F7D600",
"#	c #F77300",
"$	c #F7F7F7",
"                    ",
"                    ",
"                    ",
"         . ....     ",
"      ...+.++++.    ",
"     .@@.+..++.     ",
"    .@@@@.##..      ",
"   .@@$@##@###.     ",
"   .@$#@@@@@##.     ",
"   .@$@@@@####.     ",
"   .#@@@#@@###.     ",
"   .@@@@@@####.     ",
"   .#@#@#@####.     ",
"    .#@@@####.      ",
"    .########.      ",
"     ..####..       ",
"       ....         ",
"                    ",
"                    ",
"                    "};
