/* XPM */
static char * out_vsSkinnerBone_xpm[] = {
"20 20 6 1",
" 	s bg c None",
".	c #000000",
"+	c #C64200",
"@	c #F7F7F7",
"#	c #B563B5",
"$	c #735273",
"                    ",
"                    ",
"            .       ",
"           .+.      ",
"      ...  .++.     ",
"     .@#$.  .++.    ",
"     .##$. .+.++.   ",
"     .$$$...+..+.   ",
"     ....@#$.  .    ",
"    .@#$.##$.       ",
"    .##$.$$$...     ",
"    .$$$....@#$.    ",
"    ....@#$.##$.    ",
"   .@#$.##$.$$$.    ",
"   .##$.$$$....     ",
"   .$$$....         ",
"    ...             ",
"                    ",
"                    ",
"                    "};
