/* XPM */
static char * out_vsSkinnerVol_xpm[] = {
"20 20 6 1",
" 	s bg c None",
".	c #000000",
"+	c #00A500",
"@	c #F71010",
"#	c #F7F7F7",
"$	c #B563B5",
"                    ",
"                    ",
"                    ",
"          .         ",
"         .+...      ",
"       ...+.++.     ",
"      .@@.++++.     ",
"     .@@#.+++.      ",
"     .@#@@.+++.     ",
"     .@@$@@.+++.    ",
"    .@$@@@@....     ",
"    .@@@$@@@@.      ",
"    .@@@@@@$@.      ",
"    .@$@@$@@@.      ",
"    .@@@@@@@.       ",
"     .@@$@..        ",
"      ....          ",
"                    ",
"                    ",
"                    "};
