/* XPM */
static char * vstAttrPaint_xpm[] = {
"32 32 206 2",
"  	c None",
". 	c #C1C1C1",
"+ 	c #C2C2C2",
"@ 	c #C89090",
"# 	c #D07878",
"$ 	c #6F7954",
"% 	c #5E6A3E",
"& 	c #989D8B",
"* 	c #6F7955",
"= 	c #B9A4A4",
"- 	c #D84848",
"; 	c #F80000",
"> 	c #E01010",
", 	c #929883",
"' 	c #788161",
") 	c #788160",
"! 	c #9D8F8F",
"~ 	c #D80000",
"{ 	c #A02020",
"] 	c #B5B6B1",
"^ 	c #5F6B40",
"/ 	c #BABBB8",
"( 	c #9F8585",
"_ 	c #E00000",
": 	c #B5B0B0",
"< 	c #757E5C",
"[ 	c #9CA191",
"} 	c #9CA090",
"| 	c #C09292",
"1 	c #E80000",
"2 	c #B02020",
"3 	c #7D8567",
"4 	c #B29595",
"5 	c #F80808",
"6 	c #C80000",
"7 	c #BCA7A7",
"8 	c #B9BAB7",
"9 	c #616D43",
"0 	c #BDBDBB",
"a 	c #616D42",
"b 	c #A79191",
"c 	c #D00000",
"d 	c #F81818",
"e 	c #791212",
"f 	c #7B8365",
"g 	c #A1A597",
"h 	c #A1A596",
"i 	c #7B8364",
"j 	c #B5B2B2",
"k 	c #B80000",
"l 	c #F82020",
"m 	c #A81010",
"n 	c #9EA293",
"o 	c #81896D",
"p 	c #81896C",
"q 	c #C0C1C2",
"r 	c #B81010",
"s 	c #F82828",
"t 	c #F00000",
"u 	c #626E44",
"v 	c #646F46",
"w 	c #626D43",
"x 	c #F83838",
"y 	c #A04949",
"z 	c #8A9078",
"A 	c #80886C",
"B 	c #DFE0DE",
"C 	c #F85858",
"D 	c #800000",
"E 	c #A5A89C",
"F 	c #5F6B3F",
"G 	c #A4A79A",
"H 	c #BD0800",
"I 	c #F81010",
"J 	c #A01010",
"K 	c #BFBFBE",
"L 	c #667149",
"M 	c #657048",
"N 	c #BAB5A9",
"O 	c #B89010",
"P 	c #F89800",
"Q 	c #F86040",
"R 	c #B00000",
"S 	c #BBB7B7",
"T 	c #878E75",
"U 	c #878E74",
"V 	c #B8B5B1",
"W 	c #A88010",
"X 	c #F0B800",
"Y 	c #F8E828",
"Z 	c #F04800",
"` 	c #BDB8B8",
" .	c #ABADA4",
"..	c #AAACA2",
"+.	c #AAAAAA",
"@.	c #886800",
"#.	c #E8B000",
"$.	c #F8D818",
"%.	c #F8F040",
"&.	c #F8B800",
"*.	c #C88800",
"=.	c #A69795",
"-.	c #6B754F",
";.	c #6A744E",
">.	c #C0C0C0",
",.	c #C3C4C4",
"'.	c #302010",
").	c #987000",
"!.	c #E8C810",
"~.	c #F8F858",
"{.	c #F8C808",
"].	c #E0A000",
"^.	c #887020",
"/.	c #A4A4A4",
"(.	c #180800",
"_.	c #200800",
":.	c #280800",
"<.	c #706020",
"[.	c #E8B808",
"}.	c #E0A800",
"|.	c #A07810",
"1.	c #B8B8B0",
"2.	c #CCCDCD",
"3.	c #808078",
"4.	c #583800",
"5.	c #A07800",
"6.	c #C5C5C5",
"7.	c #C0BFBF",
"8.	c #8E8A8E",
"9.	c #AAA8AB",
"0.	c #A0A0A0",
"a.	c #281000",
"b.	c #807868",
"c.	c #E05858",
"d.	c #E04040",
"e.	c #382820",
"f.	c #C0B0B0",
"g.	c #D02020",
"h.	c #C05858",
"i.	c #B05858",
"j.	c #103858",
"k.	c #183040",
"l.	c #C84848",
"m.	c #C0A0A0",
"n.	c #C83030",
"o.	c #C04848",
"p.	c #6890A8",
"q.	c #0078D0",
"r.	c #0098F8",
"s.	c #184058",
"t.	c #403830",
"u.	c #B8B0B0",
"v.	c #A04848",
"w.	c #B87878",
"x.	c #C02020",
"y.	c #B8A0A0",
"z.	c #2070A8",
"A.	c #0088E8",
"B.	c #0090E0",
"C.	c #202828",
"D.	c #B09090",
"E.	c #B01010",
"F.	c #C09090",
"G.	c #B84848",
"H.	c #982020",
"I.	c #7898B0",
"J.	c #0080D8",
"K.	c #105080",
"L.	c #904848",
"M.	c #906868",
"N.	c #B0B8C0",
"O.	c #0078C8",
"P.	c #0090F8",
"Q.	c #085080",
"R.	c #504848",
"S.	c #985858",
"T.	c #A80000",
"U.	c #B0A0A0",
"V.	c #0078D8",
"W.	c #0068B0",
"X.	c #605858",
"Y.	c #B06868",
"Z.	c #4880A8",
"`.	c #1080C8",
" +	c #0070C0",
".+	c #3080B0",
"++	c #5880A0",
"@+	c #A0A8A8",
"#+	c #B86868",
"$+	c #B0B8B8",
"%+	c #C06868",
"&+	c #C82020",
"*+	c #B89090",
"=+	c #B07878",
"-+	c #E82020",
";+	c #D03030",
">+	c #D04848",
",+	c #D83838",
"'+	c #E03838",
")+	c #E83030",
"!+	c #F01010",
"~+	c #C85858",
"{+	c #D82020",
"]+	c #E80808",
"^+	c #E81010",
"/+	c #D83030",
". . . . . . . . . . . . . . . . . . . . . + . . . . . . @ # . . ",
". $ % % % & . . . . . & % % % * . . . . . + . . . . = - ; > . . ",
". , % % % ' . . . . . ) % % % , . . . . . + . . . ! ~ ; ; { . . ",
". ] % % % ^ / . . . / ^ % % % ] . . . . . + . . ( _ ; ; _ : . . ",
". . < % % % [ . . . } % % % < . . . . . . + . | _ ; ; 1 2 . . . ",
". . & % % % 3 . . . 3 % % % & . . . . . . + 4 ~ ; 5 ; 6 7 . . . ",
". . 8 ^ % % 9 0 . 0 a % % ^ 8 . . . . . . b c ; d ; ~ e . . . . ",
". . . f % % % g . h % % % i . . . . . . j k ; l 5 1 m . . . . . ",
". . . n % % % o . p % % % n . . . . . q r 1 s d t k 4 . . . . . ",
". . . 0 u % % v 0 v % % w 0 . . . . . k _ d x ; 6 y . . . . . . ",
". . . . o % % % z % % % A . . . . B k c 5 C ; ~ D . . . . . . . ",
". . . . E % % % F % % % G . . . . ~ H 5 C I _ J . . . . . . . . ",
". . . . K L % % % % % M K . . . N O P Q l 1 R S . . . . . . . . ",
". . . . . T % % % % % U . . . V W X Y Y Z R ` . . . . . . . . . ",
". . . . .  .% % % % % ... . +.@.#.$.%.&.*.=.. . . . . . . . . . ",
". . . . . . -.% % % ;.>.. ,.'.).!.~.{.].^.+ . . . . . . . . . . ",
". . . . . . . . . . . . /.(._.:.<.[.}.|.1.+ . . . . . . . . . . ",
". . . . . . . 2.. . . 3.(._.:.:.:.4.5.1.. + . . . . . . . . . . ",
". . . . + + 6.7.8.9.0.(._.:.a.:._._.b.+ + . . . . . . . . . . . ",
". . . . . . . # c.d.e._.:.a.a.:._.e.. . . . . . . . . . . . . . ",
". . . . f.- t g.h.i.j.k.a.a.:._.(.D l.m.. . . . . . . . . . . . ",
". . f.n.6 o.m.. . p.q.r.s.:._.(.t.u.v.m w.. . . . . . . . . . . ",
". f.x.2 y.. . . . z.A.r.B.C._.(.. . . D.E.F.. . . . . . . . . . ",
". G.H.. . . . . I.J.r.r.r.K.(.3.. . . . L.h.. . . . . . . . . . ",
"y.R M.. . . . N.O.P.r.P.A.Q.R.. . . . . S.x.. . . . . . . . . . ",
"D.T.U.. . . N.V.P.P.A.J.W.X.. . . . . . 2 o.. . . . . . . . . . ",
"U.k Y.. . . Z.`. +W..+++@+. . . . . . G.c y.. . . . . . . . . . ",
". o.c #+u.. . . $+. . . . . . . . f.r _ %+. . . . . . . . . . . ",
". . n._ &+#+*+. . . . . . . u.#+&+t ~ =+. . . . . . . . . . . . ",
". . . #+> 1 t -+&+;+>+,+'+)+!+; _ ~+m.. . . . . . . . . . . . . ",
". . . . u.%+n.{+> _ ]+^+~ /+~+*+y.. . . . . . . . . . . . . . . ",
". . . . . . . . . . U.. . . . . . . . . . . . . . . . . . . . . "};
