/* XPM */
static char *out_vstExampleTransform[] = {
"20 20 12 1",
" 	s bg c None",
".	c #079238",
"+	c #07923A",
"@	c #079138",
"#	c #069139",
"$	c #07913A",
"%	c #079239",
"&	c #06923A",
"*	c #069239",
"=	c #079139",
"-	c #06913A",
";	c #079236",
"                    ",
"     .++++          ",
"     .++++          ",
"     @##++#         ",
"        $+#         ",
"        #++%        ",
"        +++&        ",
"        +++*        ",
"       %++++&       ",
"       ++++++       ",
"      #++%=++       ",
"      +++  ++=      ",
"     $++&  =+-      ",
"    &++-   =++@     ",
"    &++     ++#     ",
"   =++*     =+-     ",
"   ++&      *++*&+# ",
"  %++*       +++++* ",
" %++*        ;++%=  ",
"              -     "};
